%TF.GenerationSoftware,KiCad,Pcbnew,(6.0.0)*%
%TF.CreationDate,2022-09-18T22:54:42-04:00*%
%TF.ProjectId,SergioPico_USB,53657267-696f-4506-9963-6f5f5553422e,1*%
%TF.SameCoordinates,Original*%
%TF.FileFunction,Copper,L1,Top*%
%TF.FilePolarity,Positive*%
%FSLAX46Y46*%
G04 Gerber Fmt 4.6, Leading zero omitted, Abs format (unit mm)*
G04 Created by KiCad (PCBNEW (6.0.0)) date 2022-09-18 22:54:42*
%MOMM*%
%LPD*%
G01*
G04 APERTURE LIST*
G04 Aperture macros list*
%AMRoundRect*
0 Rectangle with rounded corners*
0 $1 Rounding radius*
0 $2 $3 $4 $5 $6 $7 $8 $9 X,Y pos of 4 corners*
0 Add a 4 corners polygon primitive as box body*
4,1,4,$2,$3,$4,$5,$6,$7,$8,$9,$2,$3,0*
0 Add four circle primitives for the rounded corners*
1,1,$1+$1,$2,$3*
1,1,$1+$1,$4,$5*
1,1,$1+$1,$6,$7*
1,1,$1+$1,$8,$9*
0 Add four rect primitives between the rounded corners*
20,1,$1+$1,$2,$3,$4,$5,0*
20,1,$1+$1,$4,$5,$6,$7,0*
20,1,$1+$1,$6,$7,$8,$9,0*
20,1,$1+$1,$8,$9,$2,$3,0*%
G04 Aperture macros list end*
%TA.AperFunction,SMDPad,CuDef*%
%ADD10RoundRect,0.200000X-0.200000X-0.275000X0.200000X-0.275000X0.200000X0.275000X-0.200000X0.275000X0*%
%TD*%
%TA.AperFunction,ComponentPad*%
%ADD11R,1.700000X1.700000*%
%TD*%
%TA.AperFunction,ComponentPad*%
%ADD12O,1.700000X1.700000*%
%TD*%
%TA.AperFunction,SMDPad,CuDef*%
%ADD13R,0.300000X1.700000*%
%TD*%
%TA.AperFunction,SMDPad,CuDef*%
%ADD14R,0.700000X1.700000*%
%TD*%
%TA.AperFunction,SMDPad,CuDef*%
%ADD15R,1.200000X0.900000*%
%TD*%
%TA.AperFunction,SMDPad,CuDef*%
%ADD16RoundRect,0.200000X0.200000X0.275000X-0.200000X0.275000X-0.200000X-0.275000X0.200000X-0.275000X0*%
%TD*%
%TA.AperFunction,ViaPad*%
%ADD17C,0.800000*%
%TD*%
%TA.AperFunction,Conductor*%
%ADD18C,0.500000*%
%TD*%
%TA.AperFunction,Conductor*%
%ADD19C,0.300000*%
%TD*%
%TA.AperFunction,Conductor*%
%ADD20C,0.261112*%
%TD*%
G04 APERTURE END LIST*
D10*
%TO.P,R2,1*%
%TO.N,GND*%
X124056902Y-113026162D03*
%TO.P,R2,2*%
%TO.N,Net-(J1-PadB5)*%
X125706902Y-113026162D03*
%TD*%
D11*
%TO.P,J3,1,Pin_1*%
%TO.N,GND*%
X134620000Y-107950000D03*
D12*
%TO.P,J3,2,Pin_2*%
%TO.N,+3V3*%
X134620000Y-110490000D03*
%TO.P,J3,3,Pin_3*%
%TO.N,VSYS*%
X134620000Y-113030000D03*
%TO.P,J3,4,Pin_4*%
%TO.N,VBUS*%
X134620000Y-115570000D03*
%TD*%
D13*
%TO.P,J1,A1,GND*%
%TO.N,GND*%
X129750000Y-106680000D03*
%TO.P,J1,A2,TX1+*%
%TO.N,+3V3*%
X129250000Y-106680000D03*
%TO.P,J1,A3,TX1-*%
%TO.N,unconnected-(J1-PadA3)*%
X128750000Y-106680000D03*
%TO.P,J1,A4,VBUS*%
%TO.N,VBUS*%
X128250000Y-106680000D03*
%TO.P,J1,A5,CC1*%
%TO.N,Net-(J1-PadA5)*%
X127750000Y-106680000D03*
%TO.P,J1,A6,D+*%
%TO.N,D+*%
X127250000Y-106680000D03*
%TO.P,J1,A7,D-*%
%TO.N,D-*%
X126750000Y-106680000D03*
%TO.P,J1,A8,SBU1*%
%TO.N,unconnected-(J1-PadA8)*%
X126250000Y-106680000D03*
%TO.P,J1,A9,VBUS*%
%TO.N,VBUS*%
X125750000Y-106680000D03*
%TO.P,J1,A10,RX2-*%
%TO.N,unconnected-(J1-PadA10)*%
X125250000Y-106680000D03*
%TO.P,J1,A11,RX2+*%
%TO.N,DATA*%
X124750000Y-106680000D03*
%TO.P,J1,A12,GND*%
%TO.N,GND*%
X124250000Y-106680000D03*
D14*
%TO.P,J1,S1,SHIELD*%
X122680000Y-107230000D03*
X131320000Y-107230000D03*
%TD*%
D15*
%TO.P,D1,1,K*%
%TO.N,VSYS*%
X131318000Y-113410000D03*
%TO.P,D1,2,A*%
%TO.N,+3V3*%
X131318000Y-110110000D03*
%TD*%
D16*
%TO.P,R1,1*%
%TO.N,Net-(J1-PadA5)*%
X127650000Y-116080000D03*
%TO.P,R1,2*%
%TO.N,GND*%
X126000000Y-116080000D03*
%TD*%
D11*
%TO.P,J2,1,Pin_1*%
%TO.N,DATA*%
X119380000Y-107950000D03*
D12*
%TO.P,J2,2,Pin_2*%
%TO.N,GND*%
X119380000Y-110490000D03*
%TO.P,J2,3,Pin_3*%
%TO.N,D-*%
X119380000Y-113030000D03*
%TO.P,J2,4,Pin_4*%
%TO.N,D+*%
X119380000Y-115570000D03*
%TD*%
D17*
%TO.N,+3V3*%
X130302000Y-111506000D03*
%TO.N,GND*%
X121500000Y-107080000D03*
X115000000Y-117080000D03*
X132500000Y-107080000D03*
X139000000Y-117080000D03*
X138000000Y-117080000D03*
X132500000Y-108080000D03*
X138000000Y-108080000D03*
X116000000Y-108080000D03*
X116000000Y-117080000D03*
X116000000Y-107080000D03*
X138000000Y-107080000D03*
%TO.N,VBUS*%
X129286000Y-110236000D03*
X124141999Y-110502500D03*
%TO.N,D+*%
X127508000Y-108966000D03*
%TO.N,D-*%
X126833014Y-109703156D03*
%TO.N,DATA*%
X123352593Y-111252011D03*
%TO.N,Net-(J1-PadB5)*%
X125000000Y-109740500D03*
%TD*%
D18*
%TO.N,VSYS*%
X134240000Y-113410000D02*
X134620000Y-113030000D01*
X131318000Y-113410000D02*
X134240000Y-113410000D01*
%TO.N,+3V3*%
X131318000Y-110110000D02*
X134240000Y-110110000D01*
D19*
X130302000Y-109287174D02*
X130302000Y-111506000D01*
X129250000Y-106680000D02*
X129250000Y-108235174D01*
D18*
X134240000Y-110110000D02*
X134620000Y-110490000D01*
X131318000Y-110110000D02*
X131318000Y-110490000D01*
X131318000Y-110490000D02*
X130302000Y-111506000D01*
D19*
X129250000Y-108235174D02*
X130302000Y-109287174D01*
%TO.N,GND*%
X123230000Y-106680000D02*
X122680000Y-107230000D01*
X129750000Y-106680000D02*
X130770000Y-106680000D01*
X130770000Y-106680000D02*
X131320000Y-107230000D01*
X124250000Y-106680000D02*
X123230000Y-106680000D01*
D18*
%TO.N,VBUS*%
X130490000Y-115570000D02*
X129286000Y-114366000D01*
D19*
X129286000Y-110236000D02*
X129286000Y-108977602D01*
X128250000Y-107941602D02*
X128250000Y-106680000D01*
X124141999Y-110502500D02*
X124141999Y-109538001D01*
X129286000Y-108977602D02*
X128250000Y-107941602D01*
D18*
X129286000Y-114366000D02*
X129286000Y-110236000D01*
D19*
X124141999Y-109538001D02*
X125750000Y-107930000D01*
D18*
X134620000Y-115570000D02*
X130490000Y-115570000D01*
D19*
X125750000Y-107930000D02*
X125750000Y-106680000D01*
%TO.N,Net-(J1-PadA5)*%
X127750000Y-106680000D02*
X127750000Y-108148030D01*
X127750000Y-108148030D02*
X128270000Y-108668030D01*
X128270000Y-115460000D02*
X127650000Y-116080000D01*
X128270000Y-108668030D02*
X128270000Y-115460000D01*
D20*
%TO.N,D+*%
X127563081Y-109400751D02*
X127563081Y-110005561D01*
X127508000Y-110060642D02*
X127508000Y-113709780D01*
X127508000Y-108966000D02*
X127508000Y-109345670D01*
X127563081Y-110005561D02*
X127508000Y-110060642D01*
X126685623Y-114532157D02*
X120417843Y-114532157D01*
X127232156Y-107972845D02*
X127232156Y-108690156D01*
X127250000Y-107955001D02*
X127232156Y-107972845D01*
X127508000Y-113709780D02*
X126685623Y-114532157D01*
X120417843Y-114532157D02*
X119380000Y-115570000D01*
X127232156Y-108690156D02*
X127508000Y-108966000D01*
X127250000Y-106680000D02*
X127250000Y-107955001D01*
X127508000Y-109345670D02*
X127563081Y-109400751D01*
%TO.N,D-*%
X127043688Y-109913830D02*
X126833014Y-109703156D01*
X126767844Y-107972845D02*
X126767844Y-109637986D01*
X123724652Y-114067843D02*
X126493297Y-114067843D01*
X121587843Y-113767843D02*
X121587843Y-113377908D01*
X119380000Y-113030000D02*
X120417843Y-114067843D01*
X127043688Y-113517452D02*
X127043688Y-109913830D01*
X120417843Y-114067843D02*
X121287843Y-114067843D01*
X126767844Y-109637986D02*
X126833014Y-109703156D01*
X122487843Y-114067843D02*
X123724652Y-114067843D01*
X126750000Y-106680000D02*
X126750000Y-107955001D01*
X126493297Y-114067843D02*
X127043688Y-113517452D01*
X122187843Y-113377908D02*
X122187843Y-113767843D01*
X126750000Y-107955001D02*
X126767844Y-107972845D01*
X119380000Y-113188060D02*
X119380000Y-113030000D01*
X121587843Y-113767843D02*
G75*
G02*
X121287843Y-114067843I-300000J0D01*
G01*
X122187843Y-113377908D02*
G75*
G03*
X121887843Y-113077908I-300000J0D01*
G01*
X121887843Y-113077908D02*
G75*
G03*
X121587843Y-113377908I0J-300000D01*
G01*
X122487843Y-114067843D02*
G75*
G02*
X122187843Y-113767843I0J300000D01*
G01*
D18*
%TO.N,DATA*%
X123352593Y-111252011D02*
X123352593Y-111221169D01*
X120081424Y-107950000D02*
X119380000Y-107950000D01*
D19*
X123352593Y-111252011D02*
X123352593Y-109620979D01*
X124750000Y-108223572D02*
X124750000Y-106680000D01*
D18*
X123352593Y-111221169D02*
X120081424Y-107950000D01*
D19*
X123352593Y-109620979D02*
X124750000Y-108223572D01*
%TO.N,Net-(J1-PadB5)*%
X125730000Y-110470500D02*
X125730000Y-113030000D01*
X125000000Y-109740500D02*
X125730000Y-110470500D01*
%TD*%
%TA.AperFunction,Conductor*%
%TO.N,GND*%
G36*
X118094443Y-106608002D02*
G01*
X118140936Y-106661658D01*
X118151040Y-106731932D01*
X118127148Y-106789565D01*
X118079385Y-106853295D01*
X118028255Y-106989684D01*
X118021500Y-107051866D01*
X118021500Y-108848134D01*
X118028255Y-108910316D01*
X118079385Y-109046705D01*
X118166739Y-109163261D01*
X118283295Y-109250615D01*
X118291704Y-109253767D01*
X118291705Y-109253768D01*
X118400960Y-109294726D01*
X118457725Y-109337367D01*
X118482425Y-109403929D01*
X118467218Y-109473278D01*
X118447825Y-109499759D01*
X118324590Y-109628717D01*
X118318104Y-109636727D01*
X118198098Y-109812649D01*
X118193000Y-109821623D01*
X118103338Y-110014783D01*
X118099775Y-110024470D01*
X118044389Y-110224183D01*
X118045912Y-110232607D01*
X118058292Y-110236000D01*
X120698344Y-110236000D01*
X120711875Y-110232027D01*
X120713180Y-110222947D01*
X120671214Y-110055875D01*
X120667894Y-110046124D01*
X120596355Y-109881594D01*
X120587535Y-109811148D01*
X120618202Y-109747116D01*
X120678619Y-109709828D01*
X120749603Y-109711124D01*
X120801000Y-109742257D01*
X122422611Y-111363868D01*
X122456637Y-111426180D01*
X122457347Y-111430602D01*
X122458361Y-111435371D01*
X122459051Y-111441939D01*
X122518066Y-111623567D01*
X122521369Y-111629289D01*
X122521370Y-111629290D01*
X122538267Y-111658556D01*
X122613553Y-111788955D01*
X122617971Y-111793862D01*
X122617972Y-111793863D01*
X122706426Y-111892101D01*
X122741340Y-111930877D01*
X122840436Y-112002875D01*
X122882609Y-112033515D01*
X122895841Y-112043129D01*
X122901869Y-112045813D01*
X122901871Y-112045814D01*
X123050551Y-112112010D01*
X123070305Y-112120805D01*
X123177505Y-112143591D01*
X123198632Y-112148082D01*
X123261106Y-112181811D01*
X123295427Y-112243960D01*
X123290699Y-112314799D01*
X123280211Y-112336600D01*
X123210825Y-112451170D01*
X123204617Y-112464919D01*
X123157646Y-112614806D01*
X123155033Y-112627856D01*
X123149168Y-112691683D01*
X123148902Y-112697471D01*
X123148902Y-112754047D01*
X123153377Y-112769286D01*
X123154767Y-112770491D01*
X123162450Y-112772162D01*
X123784787Y-112772162D01*
X123800026Y-112767687D01*
X123801231Y-112766297D01*
X123802902Y-112758614D01*
X123802902Y-112112010D01*
X123822904Y-112043889D01*
X123854841Y-112010074D01*
X123958502Y-111934760D01*
X123958504Y-111934758D01*
X123963846Y-111930877D01*
X123998760Y-111892101D01*
X124087214Y-111793863D01*
X124087215Y-111793862D01*
X124091633Y-111788955D01*
X124166919Y-111658556D01*
X124183816Y-111629290D01*
X124183817Y-111629289D01*
X124187120Y-111623567D01*
X124235095Y-111475916D01*
X124275169Y-111417310D01*
X124328729Y-111391606D01*
X124424287Y-111371294D01*
X124430318Y-111368609D01*
X124592721Y-111296303D01*
X124592723Y-111296302D01*
X124598751Y-111293618D01*
X124753252Y-111181366D01*
X124762633Y-111170948D01*
X124818596Y-111108794D01*
X124851864Y-111071846D01*
X124912310Y-111034606D01*
X124983293Y-111035958D01*
X125042278Y-111075471D01*
X125070536Y-111140602D01*
X125071500Y-111156156D01*
X125071500Y-112132354D01*
X125051498Y-112200475D01*
X125034595Y-112221449D01*
X124970643Y-112285401D01*
X124908331Y-112319427D01*
X124837516Y-112314362D01*
X124792453Y-112285401D01*
X124702345Y-112195293D01*
X124690476Y-112185986D01*
X124556890Y-112105083D01*
X124543145Y-112098877D01*
X124393258Y-112051906D01*
X124380208Y-112049293D01*
X124325316Y-112044249D01*
X124313778Y-112047637D01*
X124312573Y-112049027D01*
X124310902Y-112056710D01*
X124310902Y-113154162D01*
X124290900Y-113222283D01*
X124237244Y-113268776D01*
X124184902Y-113280162D01*
X123167018Y-113280162D01*
X123151779Y-113284637D01*
X123150574Y-113286027D01*
X123148903Y-113293710D01*
X123148903Y-113302787D01*
X123128901Y-113370908D01*
X123075245Y-113417401D01*
X123022903Y-113428787D01*
X122950396Y-113428787D01*
X122882275Y-113408785D01*
X122835782Y-113355129D01*
X122824876Y-113313769D01*
X122816646Y-113219712D01*
X122816645Y-113219706D01*
X122816165Y-113214220D01*
X122783749Y-113093240D01*
X122775061Y-113060815D01*
X122775060Y-113060813D01*
X122773638Y-113055505D01*
X122771315Y-113050523D01*
X122706522Y-112911574D01*
X122706519Y-112911569D01*
X122704196Y-112906587D01*
X122631203Y-112802342D01*
X122613108Y-112776500D01*
X122613106Y-112776497D01*
X122609949Y-112771989D01*
X122493762Y-112655802D01*
X122487619Y-112651500D01*
X122428735Y-112610269D01*
X122359165Y-112561555D01*
X122354183Y-112559232D01*
X122354178Y-112559229D01*
X122215228Y-112494436D01*
X122215227Y-112494435D01*
X122210246Y-112492113D01*
X122204938Y-112490691D01*
X122204936Y-112490690D01*
X122056846Y-112451010D01*
X122056845Y-112451010D01*
X122051531Y-112449586D01*
X122046045Y-112449106D01*
X122046039Y-112449105D01*
X121943841Y-112440163D01*
X121937070Y-112439386D01*
X121905409Y-112434880D01*
X121905405Y-112434880D01*
X121901325Y-112434299D01*
X121894779Y-112434231D01*
X121891969Y-112434201D01*
X121891967Y-112434201D01*
X121887843Y-112434158D01*
X121883749Y-112434653D01*
X121883738Y-112434654D01*
X121856897Y-112437902D01*
X121852753Y-112438335D01*
X121724155Y-112449586D01*
X121718841Y-112451010D01*
X121718840Y-112451010D01*
X121570750Y-112490690D01*
X121570748Y-112490691D01*
X121565440Y-112492113D01*
X121560460Y-112494435D01*
X121560458Y-112494436D01*
X121421509Y-112559229D01*
X121421504Y-112559232D01*
X121416522Y-112561555D01*
X121347917Y-112609593D01*
X121288068Y-112651500D01*
X121281924Y-112655802D01*
X121165737Y-112771989D01*
X121162580Y-112776497D01*
X121162578Y-112776500D01*
X121144483Y-112802342D01*
X121071490Y-112906587D01*
X121069167Y-112911569D01*
X121069164Y-112911574D01*
X121004371Y-113050523D01*
X121002048Y-113055505D01*
X121000627Y-113060810D01*
X121000624Y-113060817D01*
X120989973Y-113100570D01*
X120953022Y-113161193D01*
X120889162Y-113192215D01*
X120818667Y-113183787D01*
X120763920Y-113138585D01*
X120742304Y-113064883D01*
X120743074Y-113033366D01*
X120743074Y-113033361D01*
X120743156Y-113030000D01*
X120724852Y-112807361D01*
X120670431Y-112590702D01*
X120581354Y-112385840D01*
X120538389Y-112319427D01*
X120462822Y-112202617D01*
X120462820Y-112202614D01*
X120460014Y-112198277D01*
X120309670Y-112033051D01*
X120305619Y-112029852D01*
X120305615Y-112029848D01*
X120138414Y-111897800D01*
X120138410Y-111897798D01*
X120134359Y-111894598D01*
X120092569Y-111871529D01*
X120042598Y-111821097D01*
X120027826Y-111751654D01*
X120052942Y-111685248D01*
X120080294Y-111658641D01*
X120255328Y-111533792D01*
X120263200Y-111527139D01*
X120414052Y-111376812D01*
X120420730Y-111368965D01*
X120545003Y-111196020D01*
X120550313Y-111187183D01*
X120644670Y-110996267D01*
X120648469Y-110986672D01*
X120710377Y-110782910D01*
X120712555Y-110772837D01*
X120713986Y-110761962D01*
X120711775Y-110747778D01*
X120698617Y-110744000D01*
X118063225Y-110744000D01*
X118049694Y-110747973D01*
X118048257Y-110757966D01*
X118078565Y-110892446D01*
X118081645Y-110902275D01*
X118161770Y-111099603D01*
X118166413Y-111108794D01*
X118277694Y-111290388D01*
X118283777Y-111298699D01*
X118423213Y-111459667D01*
X118430580Y-111466883D01*
X118594434Y-111602916D01*
X118602881Y-111608831D01*
X118671969Y-111649203D01*
X118720693Y-111700842D01*
X118733764Y-111770625D01*
X118707033Y-111836396D01*
X118666584Y-111869752D01*
X118653607Y-111876507D01*
X118649474Y-111879610D01*
X118649471Y-111879612D01*
X118576021Y-111934760D01*
X118474965Y-112010635D01*
X118430935Y-112056710D01*
X118358648Y-112132354D01*
X118320629Y-112172138D01*
X118317715Y-112176410D01*
X118317714Y-112176411D01*
X118280653Y-112230740D01*
X118194743Y-112356680D01*
X118179003Y-112390590D01*
X118115071Y-112528320D01*
X118100688Y-112559305D01*
X118040989Y-112774570D01*
X118017251Y-112996695D01*
X118017548Y-113001848D01*
X118017548Y-113001851D01*
X118023011Y-113096590D01*
X118030110Y-113219715D01*
X118031247Y-113224761D01*
X118031248Y-113224767D01*
X118044741Y-113284637D01*
X118079222Y-113437639D01*
X118163266Y-113644616D01*
X118165965Y-113649020D01*
X118276986Y-113830190D01*
X118279987Y-113835088D01*
X118426250Y-114003938D01*
X118598126Y-114146632D01*
X118635549Y-114168500D01*
X118671445Y-114189476D01*
X118720169Y-114241114D01*
X118733240Y-114310897D01*
X118706509Y-114376669D01*
X118666055Y-114410027D01*
X118653607Y-114416507D01*
X118649474Y-114419610D01*
X118649471Y-114419612D01*
X118479100Y-114547530D01*
X118474965Y-114550635D01*
X118459670Y-114566640D01*
X118367326Y-114663273D01*
X118320629Y-114712138D01*
X118317720Y-114716403D01*
X118317714Y-114716411D01*
X118278024Y-114774595D01*
X118194743Y-114896680D01*
X118179003Y-114930590D01*
X118107275Y-115085115D01*
X118100688Y-115099305D01*
X118040989Y-115314570D01*
X118017251Y-115536695D01*
X118017548Y-115541848D01*
X118017548Y-115541851D01*
X118025222Y-115674938D01*
X118030110Y-115759715D01*
X118031247Y-115764761D01*
X118031248Y-115764767D01*
X118045048Y-115826000D01*
X118079222Y-115977639D01*
X118163266Y-116184616D01*
X118179693Y-116211423D01*
X118263111Y-116347548D01*
X118279987Y-116375088D01*
X118426250Y-116543938D01*
X118598126Y-116686632D01*
X118791000Y-116799338D01*
X118999692Y-116879030D01*
X119004760Y-116880061D01*
X119004763Y-116880062D01*
X119112017Y-116901883D01*
X119218597Y-116923567D01*
X119223772Y-116923757D01*
X119223774Y-116923757D01*
X119436673Y-116931564D01*
X119436677Y-116931564D01*
X119441837Y-116931753D01*
X119446957Y-116931097D01*
X119446959Y-116931097D01*
X119658288Y-116904025D01*
X119658289Y-116904025D01*
X119663416Y-116903368D01*
X119668366Y-116901883D01*
X119872429Y-116840661D01*
X119872434Y-116840659D01*
X119877384Y-116839174D01*
X120077994Y-116740896D01*
X120259860Y-116611173D01*
X120418096Y-116453489D01*
X120450254Y-116408737D01*
X120450277Y-116408705D01*
X125092001Y-116408705D01*
X125092264Y-116414454D01*
X125098132Y-116478315D01*
X125100743Y-116491351D01*
X125147715Y-116641243D01*
X125153921Y-116654988D01*
X125234824Y-116788574D01*
X125244131Y-116800443D01*
X125354557Y-116910869D01*
X125366426Y-116920176D01*
X125500012Y-117001079D01*
X125513757Y-117007285D01*
X125663644Y-117054256D01*
X125676694Y-117056869D01*
X125731586Y-117061913D01*
X125743124Y-117058525D01*
X125744329Y-117057135D01*
X125746000Y-117049452D01*
X125746000Y-116352115D01*
X125741525Y-116336876D01*
X125740135Y-116335671D01*
X125732452Y-116334000D01*
X125110116Y-116334000D01*
X125094877Y-116338475D01*
X125093672Y-116339865D01*
X125092001Y-116347548D01*
X125092001Y-116408705D01*
X120450277Y-116408705D01*
X120545435Y-116276277D01*
X120548453Y-116272077D01*
X120558099Y-116252561D01*
X120645136Y-116076453D01*
X120645137Y-116076451D01*
X120647430Y-116071811D01*
X120679900Y-115964940D01*
X120710865Y-115863023D01*
X120710865Y-115863021D01*
X120712370Y-115858069D01*
X120741529Y-115636590D01*
X120743156Y-115570000D01*
X120724852Y-115347361D01*
X120723593Y-115342347D01*
X120719966Y-115327907D01*
X120722771Y-115256966D01*
X120763484Y-115198803D01*
X120829180Y-115171884D01*
X120842170Y-115171213D01*
X125132899Y-115171213D01*
X125201020Y-115191215D01*
X125247513Y-115244871D01*
X125257617Y-115315145D01*
X125236837Y-115363767D01*
X125238758Y-115364930D01*
X125153921Y-115505012D01*
X125147715Y-115518757D01*
X125100744Y-115668644D01*
X125098131Y-115681694D01*
X125092266Y-115745521D01*
X125092000Y-115751309D01*
X125092000Y-115807885D01*
X125096475Y-115823124D01*
X125097865Y-115824329D01*
X125105548Y-115826000D01*
X126128000Y-115826000D01*
X126196121Y-115846002D01*
X126242614Y-115899658D01*
X126254000Y-115952000D01*
X126254000Y-117044884D01*
X126258475Y-117060123D01*
X126259865Y-117061328D01*
X126264294Y-117062291D01*
X126323315Y-117056868D01*
X126336351Y-117054257D01*
X126486243Y-117007285D01*
X126499988Y-117001079D01*
X126633574Y-116920176D01*
X126645443Y-116910869D01*
X126735551Y-116820761D01*
X126797863Y-116786735D01*
X126868678Y-116791800D01*
X126913741Y-116820761D01*
X127009619Y-116916639D01*
X127156301Y-117005472D01*
X127163548Y-117007743D01*
X127163550Y-117007744D01*
X127229836Y-117028517D01*
X127319938Y-117056753D01*
X127393365Y-117063500D01*
X127396263Y-117063500D01*
X127650665Y-117063499D01*
X127906634Y-117063499D01*
X127909492Y-117063236D01*
X127909501Y-117063236D01*
X127945004Y-117059974D01*
X127980062Y-117056753D01*
X127988030Y-117054256D01*
X128136450Y-117007744D01*
X128136452Y-117007743D01*
X128143699Y-117005472D01*
X128290381Y-116916639D01*
X128411639Y-116795381D01*
X128500472Y-116648699D01*
X128511293Y-116614171D01*
X128549752Y-116491446D01*
X128551753Y-116485062D01*
X128558500Y-116411635D01*
X128558500Y-116154951D01*
X128578502Y-116086830D01*
X128595404Y-116065856D01*
X128677605Y-115983654D01*
X128686385Y-115975664D01*
X128693080Y-115971416D01*
X128741620Y-115919726D01*
X128744374Y-115916885D01*
X128764926Y-115896333D01*
X128767638Y-115892837D01*
X128775349Y-115883808D01*
X128794867Y-115863023D01*
X128806972Y-115850133D01*
X128817301Y-115831345D01*
X128828158Y-115814816D01*
X128836447Y-115804131D01*
X128836448Y-115804129D01*
X128841304Y-115797869D01*
X128859657Y-115755456D01*
X128864868Y-115744819D01*
X128887124Y-115704337D01*
X128892457Y-115683566D01*
X128898859Y-115664864D01*
X128907379Y-115645177D01*
X128914605Y-115599552D01*
X128917013Y-115587926D01*
X128926529Y-115550865D01*
X128926529Y-115550864D01*
X128928500Y-115543188D01*
X128928500Y-115521742D01*
X128930051Y-115502031D01*
X128932166Y-115488678D01*
X128933406Y-115480849D01*
X128929059Y-115434864D01*
X128928500Y-115423006D01*
X128928500Y-115385371D01*
X128948502Y-115317250D01*
X129002158Y-115270757D01*
X129072432Y-115260653D01*
X129137012Y-115290147D01*
X129143595Y-115296276D01*
X129906230Y-116058911D01*
X129918616Y-116073323D01*
X129927149Y-116084918D01*
X129927154Y-116084923D01*
X129931492Y-116090818D01*
X129937070Y-116095557D01*
X129937073Y-116095560D01*
X129971768Y-116125035D01*
X129979284Y-116131965D01*
X129984979Y-116137660D01*
X129987861Y-116139940D01*
X130007251Y-116155281D01*
X130010655Y-116158072D01*
X130060703Y-116200591D01*
X130066285Y-116205333D01*
X130072801Y-116208661D01*
X130077850Y-116212028D01*
X130082979Y-116215195D01*
X130088716Y-116219734D01*
X130154875Y-116250655D01*
X130158769Y-116252558D01*
X130223808Y-116285769D01*
X130230916Y-116287508D01*
X130236559Y-116289607D01*
X130242322Y-116291524D01*
X130248950Y-116294622D01*
X130256112Y-116296112D01*
X130256113Y-116296112D01*
X130320412Y-116309486D01*
X130324696Y-116310456D01*
X130395610Y-116327808D01*
X130401212Y-116328156D01*
X130401215Y-116328156D01*
X130406764Y-116328500D01*
X130406762Y-116328536D01*
X130410755Y-116328775D01*
X130414947Y-116329149D01*
X130422115Y-116330640D01*
X130499520Y-116328546D01*
X130502928Y-116328500D01*
X133422491Y-116328500D01*
X133490612Y-116348502D01*
X133519402Y-116375595D01*
X133519987Y-116375088D01*
X133666250Y-116543938D01*
X133838126Y-116686632D01*
X134031000Y-116799338D01*
X134239692Y-116879030D01*
X134244760Y-116880061D01*
X134244763Y-116880062D01*
X134352017Y-116901883D01*
X134458597Y-116923567D01*
X134463772Y-116923757D01*
X134463774Y-116923757D01*
X134676673Y-116931564D01*
X134676677Y-116931564D01*
X134681837Y-116931753D01*
X134686957Y-116931097D01*
X134686959Y-116931097D01*
X134898288Y-116904025D01*
X134898289Y-116904025D01*
X134903416Y-116903368D01*
X134908366Y-116901883D01*
X135112429Y-116840661D01*
X135112434Y-116840659D01*
X135117384Y-116839174D01*
X135317994Y-116740896D01*
X135499860Y-116611173D01*
X135658096Y-116453489D01*
X135690254Y-116408737D01*
X135785435Y-116276277D01*
X135788453Y-116272077D01*
X135798099Y-116252561D01*
X135885136Y-116076453D01*
X135885137Y-116076451D01*
X135887430Y-116071811D01*
X135919900Y-115964940D01*
X135950865Y-115863023D01*
X135950865Y-115863021D01*
X135952370Y-115858069D01*
X135981529Y-115636590D01*
X135983156Y-115570000D01*
X135964852Y-115347361D01*
X135910431Y-115130702D01*
X135821354Y-114925840D01*
X135743336Y-114805243D01*
X135702822Y-114742617D01*
X135702820Y-114742614D01*
X135700014Y-114738277D01*
X135549670Y-114573051D01*
X135545619Y-114569852D01*
X135545615Y-114569848D01*
X135378414Y-114437800D01*
X135378410Y-114437798D01*
X135374359Y-114434598D01*
X135333053Y-114411796D01*
X135283084Y-114361364D01*
X135268312Y-114291921D01*
X135293428Y-114225516D01*
X135320780Y-114198909D01*
X135364603Y-114167650D01*
X135499860Y-114071173D01*
X135658096Y-113913489D01*
X135670277Y-113896538D01*
X135785435Y-113736277D01*
X135788453Y-113732077D01*
X135829729Y-113648562D01*
X135885136Y-113536453D01*
X135885137Y-113536451D01*
X135887430Y-113531811D01*
X135930093Y-113391390D01*
X135950865Y-113323023D01*
X135950865Y-113323021D01*
X135952370Y-113318069D01*
X135981529Y-113096590D01*
X135981904Y-113081254D01*
X135983074Y-113033365D01*
X135983074Y-113033361D01*
X135983156Y-113030000D01*
X135964852Y-112807361D01*
X135910431Y-112590702D01*
X135821354Y-112385840D01*
X135778389Y-112319427D01*
X135702822Y-112202617D01*
X135702820Y-112202614D01*
X135700014Y-112198277D01*
X135634688Y-112126485D01*
X138336854Y-112126485D01*
X138337156Y-112130320D01*
X138361108Y-112434654D01*
X138362370Y-112450695D01*
X138427206Y-112769378D01*
X138530398Y-113077784D01*
X138532052Y-113081253D01*
X138532053Y-113081254D01*
X138541266Y-113100570D01*
X138670405Y-113371316D01*
X138672467Y-113374553D01*
X138672470Y-113374558D01*
X138709827Y-113433196D01*
X138845141Y-113645597D01*
X138847584Y-113648560D01*
X138847585Y-113648562D01*
X139028558Y-113868099D01*
X139052001Y-113896538D01*
X139287902Y-114120399D01*
X139549326Y-114313843D01*
X139635500Y-114362598D01*
X139829019Y-114472086D01*
X139829023Y-114472088D01*
X139832376Y-114473985D01*
X140132832Y-114598438D01*
X140236288Y-114627129D01*
X140442500Y-114684317D01*
X140442508Y-114684319D01*
X140446216Y-114685347D01*
X140767856Y-114733416D01*
X140771154Y-114733560D01*
X140882918Y-114738440D01*
X140882922Y-114738440D01*
X140884294Y-114738500D01*
X141082598Y-114738500D01*
X141324605Y-114723698D01*
X141328388Y-114722997D01*
X141328395Y-114722996D01*
X141485365Y-114693903D01*
X141644372Y-114664433D01*
X141853682Y-114598438D01*
X141950860Y-114567798D01*
X141950863Y-114567797D01*
X141954532Y-114566640D01*
X141958029Y-114565046D01*
X141958035Y-114565044D01*
X142246954Y-114433376D01*
X142246958Y-114433374D01*
X142250462Y-114431777D01*
X142253744Y-114429766D01*
X142524473Y-114263863D01*
X142524476Y-114263861D01*
X142527751Y-114261854D01*
X142530755Y-114259464D01*
X142530760Y-114259461D01*
X142655007Y-114160630D01*
X142782264Y-114059405D01*
X142784958Y-114056664D01*
X142784962Y-114056660D01*
X143007513Y-113830190D01*
X143007517Y-113830185D01*
X143010208Y-113827447D01*
X143208185Y-113569439D01*
X143368560Y-113297176D01*
X143371289Y-113292543D01*
X143371291Y-113292540D01*
X143373242Y-113289227D01*
X143502920Y-112990988D01*
X143526444Y-112911574D01*
X143568234Y-112770491D01*
X143595285Y-112679169D01*
X143648961Y-112358417D01*
X143663146Y-112033515D01*
X143646428Y-111821097D01*
X143637932Y-111713140D01*
X143637932Y-111713137D01*
X143637630Y-111709305D01*
X143572794Y-111390622D01*
X143469602Y-111082216D01*
X143329595Y-110788684D01*
X143319565Y-110772939D01*
X143203377Y-110590561D01*
X143154859Y-110514403D01*
X143007470Y-110335606D01*
X142950442Y-110266425D01*
X142950438Y-110266420D01*
X142947999Y-110263462D01*
X142712098Y-110039601D01*
X142450674Y-109846157D01*
X142275620Y-109747116D01*
X142170981Y-109687914D01*
X142170977Y-109687912D01*
X142167624Y-109686015D01*
X142091420Y-109654450D01*
X141941139Y-109592202D01*
X141867168Y-109561562D01*
X141763712Y-109532871D01*
X141557500Y-109475683D01*
X141557492Y-109475681D01*
X141553784Y-109474653D01*
X141232144Y-109426584D01*
X141228846Y-109426440D01*
X141117082Y-109421560D01*
X141117078Y-109421560D01*
X141115706Y-109421500D01*
X140917402Y-109421500D01*
X140675395Y-109436302D01*
X140671612Y-109437003D01*
X140671605Y-109437004D01*
X140538758Y-109461626D01*
X140355628Y-109495567D01*
X140181174Y-109550572D01*
X140049140Y-109592202D01*
X140049137Y-109592203D01*
X140045468Y-109593360D01*
X140041971Y-109594954D01*
X140041965Y-109594956D01*
X139753046Y-109726624D01*
X139753042Y-109726626D01*
X139749538Y-109728223D01*
X139746259Y-109730233D01*
X139746256Y-109730234D01*
X139503922Y-109878737D01*
X139472249Y-109898146D01*
X139469245Y-109900536D01*
X139469240Y-109900539D01*
X139344992Y-109999371D01*
X139217736Y-110100595D01*
X139215042Y-110103336D01*
X139215038Y-110103340D01*
X138992487Y-110329810D01*
X138992483Y-110329815D01*
X138989792Y-110332553D01*
X138973156Y-110354234D01*
X138836012Y-110532963D01*
X138791815Y-110590561D01*
X138626758Y-110870773D01*
X138497080Y-111169012D01*
X138495986Y-111172706D01*
X138495984Y-111172711D01*
X138461320Y-111289737D01*
X138404715Y-111480831D01*
X138351039Y-111801583D01*
X138336854Y-112126485D01*
X135634688Y-112126485D01*
X135549670Y-112033051D01*
X135545619Y-112029852D01*
X135545615Y-112029848D01*
X135378414Y-111897800D01*
X135378410Y-111897798D01*
X135374359Y-111894598D01*
X135333053Y-111871796D01*
X135283084Y-111821364D01*
X135268312Y-111751921D01*
X135293428Y-111685516D01*
X135320780Y-111658909D01*
X135379139Y-111617282D01*
X135499860Y-111531173D01*
X135555311Y-111475916D01*
X135600783Y-111430602D01*
X135658096Y-111373489D01*
X135665010Y-111363868D01*
X135785435Y-111196277D01*
X135788453Y-111192077D01*
X135796376Y-111176047D01*
X135885136Y-110996453D01*
X135885137Y-110996451D01*
X135887430Y-110991811D01*
X135952370Y-110778069D01*
X135981529Y-110556590D01*
X135982106Y-110532963D01*
X135983074Y-110493365D01*
X135983074Y-110493361D01*
X135983156Y-110490000D01*
X135964852Y-110267361D01*
X135910431Y-110050702D01*
X135821354Y-109845840D01*
X135700014Y-109658277D01*
X135696540Y-109654459D01*
X135696533Y-109654450D01*
X135552435Y-109496088D01*
X135521383Y-109432242D01*
X135529779Y-109361744D01*
X135574956Y-109306976D01*
X135601400Y-109293307D01*
X135708052Y-109253325D01*
X135723649Y-109244786D01*
X135825724Y-109168285D01*
X135838285Y-109155724D01*
X135914786Y-109053649D01*
X135923324Y-109038054D01*
X135968478Y-108917606D01*
X135972105Y-108902351D01*
X135977631Y-108851486D01*
X135978000Y-108844672D01*
X135978000Y-108222115D01*
X135973525Y-108206876D01*
X135972135Y-108205671D01*
X135964452Y-108204000D01*
X133280116Y-108204000D01*
X133264877Y-108208475D01*
X133263672Y-108209865D01*
X133262001Y-108217548D01*
X133262001Y-108844669D01*
X133262371Y-108851490D01*
X133267895Y-108902352D01*
X133271521Y-108917604D01*
X133316676Y-109038054D01*
X133325211Y-109053644D01*
X133397377Y-109149935D01*
X133422224Y-109216442D01*
X133407171Y-109285824D01*
X133356996Y-109336054D01*
X133296550Y-109351500D01*
X132385329Y-109351500D01*
X132317208Y-109331498D01*
X132293668Y-109309593D01*
X132292992Y-109310269D01*
X132286642Y-109303919D01*
X132281261Y-109296739D01*
X132164705Y-109209385D01*
X132028316Y-109158255D01*
X131966134Y-109151500D01*
X131042914Y-109151500D01*
X130974793Y-109131498D01*
X130928300Y-109077842D01*
X130921917Y-109060652D01*
X130915422Y-109038297D01*
X130911145Y-109023574D01*
X130900225Y-109005109D01*
X130891534Y-108987369D01*
X130883635Y-108967418D01*
X130856482Y-108930045D01*
X130849967Y-108920126D01*
X130830493Y-108887197D01*
X130830490Y-108887193D01*
X130826453Y-108880367D01*
X130811289Y-108865203D01*
X130798448Y-108850169D01*
X130785841Y-108832817D01*
X130750247Y-108803371D01*
X130741468Y-108795382D01*
X130736894Y-108790808D01*
X130702868Y-108728496D01*
X130707933Y-108657681D01*
X130750480Y-108600845D01*
X130817000Y-108576034D01*
X130855135Y-108579130D01*
X130867649Y-108582105D01*
X130918514Y-108587631D01*
X130925328Y-108588000D01*
X131047885Y-108588000D01*
X131063124Y-108583525D01*
X131064329Y-108582135D01*
X131066000Y-108574452D01*
X131066000Y-108569884D01*
X131574000Y-108569884D01*
X131578475Y-108585123D01*
X131579865Y-108586328D01*
X131587548Y-108587999D01*
X131714669Y-108587999D01*
X131721490Y-108587629D01*
X131772352Y-108582105D01*
X131787604Y-108578479D01*
X131908054Y-108533324D01*
X131923649Y-108524786D01*
X132025724Y-108448285D01*
X132038285Y-108435724D01*
X132114786Y-108333649D01*
X132123324Y-108318054D01*
X132168478Y-108197606D01*
X132172105Y-108182351D01*
X132177631Y-108131486D01*
X132178000Y-108124672D01*
X132178000Y-107502115D01*
X132173525Y-107486876D01*
X132172135Y-107485671D01*
X132164452Y-107484000D01*
X131592115Y-107484000D01*
X131576876Y-107488475D01*
X131575671Y-107489865D01*
X131574000Y-107497548D01*
X131574000Y-108569884D01*
X131066000Y-108569884D01*
X131066000Y-107102000D01*
X131086002Y-107033879D01*
X131139658Y-106987386D01*
X131192000Y-106976000D01*
X132159884Y-106976000D01*
X132175123Y-106971525D01*
X132176328Y-106970135D01*
X132177999Y-106962452D01*
X132177999Y-106714000D01*
X132198001Y-106645879D01*
X132251657Y-106599386D01*
X132303999Y-106588000D01*
X133266947Y-106588000D01*
X133335068Y-106608002D01*
X133381561Y-106661658D01*
X133391665Y-106731932D01*
X133367773Y-106789565D01*
X133325214Y-106846351D01*
X133316676Y-106861946D01*
X133271522Y-106982394D01*
X133267895Y-106997649D01*
X133262369Y-107048514D01*
X133262000Y-107055328D01*
X133262000Y-107677885D01*
X133266475Y-107693124D01*
X133267865Y-107694329D01*
X133275548Y-107696000D01*
X135959884Y-107696000D01*
X135975123Y-107691525D01*
X135976328Y-107690135D01*
X135977999Y-107682452D01*
X135977999Y-107055331D01*
X135977629Y-107048510D01*
X135972105Y-106997648D01*
X135968479Y-106982396D01*
X135923324Y-106861946D01*
X135914786Y-106846351D01*
X135872227Y-106789565D01*
X135847379Y-106723058D01*
X135862432Y-106653676D01*
X135912606Y-106603446D01*
X135973053Y-106588000D01*
X140950672Y-106588000D01*
X140970057Y-106589500D01*
X140984858Y-106591805D01*
X140984861Y-106591805D01*
X140993730Y-106593186D01*
X141014639Y-106590452D01*
X141036176Y-106589496D01*
X141225093Y-106597310D01*
X141448320Y-106606543D01*
X141458698Y-106607403D01*
X141734778Y-106641816D01*
X141898784Y-106662260D01*
X141909049Y-106663972D01*
X142024700Y-106688222D01*
X142343101Y-106754984D01*
X142353196Y-106757540D01*
X142460767Y-106789565D01*
X142778259Y-106884086D01*
X142788099Y-106887465D01*
X143201263Y-107048682D01*
X143210794Y-107052862D01*
X143215838Y-107055328D01*
X143609215Y-107247638D01*
X143618374Y-107252594D01*
X143999364Y-107479616D01*
X144008081Y-107485312D01*
X144369011Y-107743010D01*
X144377230Y-107749406D01*
X144715664Y-108036045D01*
X144723325Y-108043099D01*
X145036901Y-108356675D01*
X145043955Y-108364336D01*
X145330594Y-108702770D01*
X145336990Y-108710989D01*
X145594688Y-109071919D01*
X145600384Y-109080636D01*
X145761785Y-109351500D01*
X145806440Y-109426440D01*
X145827406Y-109461626D01*
X145832360Y-109470782D01*
X146014942Y-109844258D01*
X146027135Y-109869200D01*
X146031318Y-109878737D01*
X146192535Y-110291901D01*
X146195914Y-110301741D01*
X146250962Y-110486646D01*
X146322460Y-110726804D01*
X146325016Y-110736899D01*
X146416027Y-111170948D01*
X146417741Y-111181220D01*
X146472597Y-111621302D01*
X146473457Y-111631680D01*
X146478839Y-111761797D01*
X146490671Y-112047852D01*
X146491785Y-112074793D01*
X146491785Y-112085198D01*
X146487108Y-112198277D01*
X146473457Y-112528320D01*
X146472597Y-112538698D01*
X146417741Y-112978780D01*
X146416027Y-112989052D01*
X146325016Y-113423101D01*
X146322460Y-113433196D01*
X146294576Y-113526857D01*
X146201651Y-113838990D01*
X146195917Y-113858249D01*
X146192535Y-113868099D01*
X146031318Y-114281263D01*
X146027138Y-114290794D01*
X145845044Y-114663273D01*
X145832362Y-114689215D01*
X145827407Y-114698371D01*
X145805905Y-114734457D01*
X145600384Y-115079364D01*
X145594688Y-115088081D01*
X145336990Y-115449011D01*
X145330594Y-115457230D01*
X145043955Y-115795664D01*
X145036901Y-115803325D01*
X144723325Y-116116901D01*
X144715664Y-116123955D01*
X144377230Y-116410594D01*
X144369011Y-116416990D01*
X144008081Y-116674688D01*
X143999364Y-116680384D01*
X143730386Y-116840661D01*
X143625151Y-116903368D01*
X143618374Y-116907406D01*
X143609218Y-116912360D01*
X143210794Y-117107138D01*
X143201263Y-117111318D01*
X142788099Y-117272535D01*
X142778259Y-117275914D01*
X142559978Y-117340899D01*
X142353196Y-117402460D01*
X142343101Y-117405016D01*
X142024700Y-117471778D01*
X141909049Y-117496028D01*
X141898784Y-117497740D01*
X141734778Y-117518184D01*
X141458698Y-117552597D01*
X141448320Y-117553457D01*
X141043639Y-117570195D01*
X141019049Y-117568803D01*
X141015147Y-117568196D01*
X141015145Y-117568196D01*
X141006270Y-117566814D01*
X140997368Y-117567978D01*
X140997365Y-117567978D01*
X140974749Y-117570936D01*
X140958411Y-117572000D01*
X113049328Y-117572000D01*
X113029943Y-117570500D01*
X113015142Y-117568195D01*
X113015139Y-117568195D01*
X113006270Y-117566814D01*
X112985361Y-117569548D01*
X112963824Y-117570504D01*
X112774907Y-117562690D01*
X112551680Y-117553457D01*
X112541302Y-117552597D01*
X112265222Y-117518184D01*
X112101216Y-117497740D01*
X112090951Y-117496028D01*
X111975300Y-117471778D01*
X111656899Y-117405016D01*
X111646804Y-117402460D01*
X111440022Y-117340899D01*
X111221741Y-117275914D01*
X111211901Y-117272535D01*
X110798737Y-117111318D01*
X110789206Y-117107138D01*
X110390782Y-116912360D01*
X110381626Y-116907406D01*
X110374850Y-116903368D01*
X110269614Y-116840661D01*
X110000636Y-116680384D01*
X109991919Y-116674688D01*
X109630989Y-116416990D01*
X109622770Y-116410594D01*
X109284336Y-116123955D01*
X109276675Y-116116901D01*
X108963099Y-115803325D01*
X108956045Y-115795664D01*
X108669406Y-115457230D01*
X108663010Y-115449011D01*
X108405312Y-115088081D01*
X108399616Y-115079364D01*
X108194095Y-114734457D01*
X108172593Y-114698371D01*
X108167638Y-114689215D01*
X108154956Y-114663273D01*
X107972862Y-114290794D01*
X107968682Y-114281263D01*
X107807465Y-113868099D01*
X107804083Y-113858249D01*
X107798350Y-113838990D01*
X107705424Y-113526857D01*
X107677540Y-113433196D01*
X107674984Y-113423101D01*
X107583973Y-112989052D01*
X107582259Y-112978780D01*
X107527403Y-112538698D01*
X107526543Y-112528320D01*
X107512892Y-112198277D01*
X107509923Y-112126485D01*
X110336854Y-112126485D01*
X110337156Y-112130320D01*
X110361108Y-112434654D01*
X110362370Y-112450695D01*
X110427206Y-112769378D01*
X110530398Y-113077784D01*
X110532052Y-113081253D01*
X110532053Y-113081254D01*
X110541266Y-113100570D01*
X110670405Y-113371316D01*
X110672467Y-113374553D01*
X110672470Y-113374558D01*
X110709827Y-113433196D01*
X110845141Y-113645597D01*
X110847584Y-113648560D01*
X110847585Y-113648562D01*
X111028558Y-113868099D01*
X111052001Y-113896538D01*
X111287902Y-114120399D01*
X111549326Y-114313843D01*
X111635500Y-114362598D01*
X111829019Y-114472086D01*
X111829023Y-114472088D01*
X111832376Y-114473985D01*
X112132832Y-114598438D01*
X112236288Y-114627129D01*
X112442500Y-114684317D01*
X112442508Y-114684319D01*
X112446216Y-114685347D01*
X112767856Y-114733416D01*
X112771154Y-114733560D01*
X112882918Y-114738440D01*
X112882922Y-114738440D01*
X112884294Y-114738500D01*
X113082598Y-114738500D01*
X113324605Y-114723698D01*
X113328388Y-114722997D01*
X113328395Y-114722996D01*
X113485365Y-114693903D01*
X113644372Y-114664433D01*
X113853682Y-114598438D01*
X113950860Y-114567798D01*
X113950863Y-114567797D01*
X113954532Y-114566640D01*
X113958029Y-114565046D01*
X113958035Y-114565044D01*
X114246954Y-114433376D01*
X114246958Y-114433374D01*
X114250462Y-114431777D01*
X114253744Y-114429766D01*
X114524473Y-114263863D01*
X114524476Y-114263861D01*
X114527751Y-114261854D01*
X114530755Y-114259464D01*
X114530760Y-114259461D01*
X114655007Y-114160630D01*
X114782264Y-114059405D01*
X114784958Y-114056664D01*
X114784962Y-114056660D01*
X115007513Y-113830190D01*
X115007517Y-113830185D01*
X115010208Y-113827447D01*
X115208185Y-113569439D01*
X115368560Y-113297176D01*
X115371289Y-113292543D01*
X115371291Y-113292540D01*
X115373242Y-113289227D01*
X115502920Y-112990988D01*
X115526444Y-112911574D01*
X115568234Y-112770491D01*
X115595285Y-112679169D01*
X115648961Y-112358417D01*
X115663146Y-112033515D01*
X115646428Y-111821097D01*
X115637932Y-111713140D01*
X115637932Y-111713137D01*
X115637630Y-111709305D01*
X115572794Y-111390622D01*
X115469602Y-111082216D01*
X115329595Y-110788684D01*
X115319565Y-110772939D01*
X115203377Y-110590561D01*
X115154859Y-110514403D01*
X115007470Y-110335606D01*
X114950442Y-110266425D01*
X114950438Y-110266420D01*
X114947999Y-110263462D01*
X114712098Y-110039601D01*
X114450674Y-109846157D01*
X114275620Y-109747116D01*
X114170981Y-109687914D01*
X114170977Y-109687912D01*
X114167624Y-109686015D01*
X114091420Y-109654450D01*
X113941139Y-109592202D01*
X113867168Y-109561562D01*
X113763712Y-109532871D01*
X113557500Y-109475683D01*
X113557492Y-109475681D01*
X113553784Y-109474653D01*
X113232144Y-109426584D01*
X113228846Y-109426440D01*
X113117082Y-109421560D01*
X113117078Y-109421560D01*
X113115706Y-109421500D01*
X112917402Y-109421500D01*
X112675395Y-109436302D01*
X112671612Y-109437003D01*
X112671605Y-109437004D01*
X112538758Y-109461626D01*
X112355628Y-109495567D01*
X112181174Y-109550572D01*
X112049140Y-109592202D01*
X112049137Y-109592203D01*
X112045468Y-109593360D01*
X112041971Y-109594954D01*
X112041965Y-109594956D01*
X111753046Y-109726624D01*
X111753042Y-109726626D01*
X111749538Y-109728223D01*
X111746259Y-109730233D01*
X111746256Y-109730234D01*
X111503922Y-109878737D01*
X111472249Y-109898146D01*
X111469245Y-109900536D01*
X111469240Y-109900539D01*
X111344992Y-109999371D01*
X111217736Y-110100595D01*
X111215042Y-110103336D01*
X111215038Y-110103340D01*
X110992487Y-110329810D01*
X110992483Y-110329815D01*
X110989792Y-110332553D01*
X110973156Y-110354234D01*
X110836012Y-110532963D01*
X110791815Y-110590561D01*
X110626758Y-110870773D01*
X110497080Y-111169012D01*
X110495986Y-111172706D01*
X110495984Y-111172711D01*
X110461320Y-111289737D01*
X110404715Y-111480831D01*
X110351039Y-111801583D01*
X110336854Y-112126485D01*
X107509923Y-112126485D01*
X107508215Y-112085198D01*
X107508215Y-112074793D01*
X107509330Y-112047852D01*
X107521161Y-111761797D01*
X107526543Y-111631680D01*
X107527403Y-111621302D01*
X107582259Y-111181220D01*
X107583973Y-111170948D01*
X107674984Y-110736899D01*
X107677540Y-110726804D01*
X107749038Y-110486646D01*
X107804086Y-110301741D01*
X107807465Y-110291901D01*
X107968682Y-109878737D01*
X107972865Y-109869200D01*
X107985059Y-109844258D01*
X108167640Y-109470782D01*
X108172594Y-109461626D01*
X108193561Y-109426440D01*
X108238215Y-109351500D01*
X108399616Y-109080636D01*
X108405312Y-109071919D01*
X108663010Y-108710989D01*
X108669406Y-108702770D01*
X108956045Y-108364336D01*
X108963099Y-108356675D01*
X109276675Y-108043099D01*
X109284336Y-108036045D01*
X109622770Y-107749406D01*
X109630989Y-107743010D01*
X109991919Y-107485312D01*
X110000636Y-107479616D01*
X110381626Y-107252594D01*
X110390785Y-107247638D01*
X110784162Y-107055328D01*
X110789206Y-107052862D01*
X110798737Y-107048682D01*
X111211901Y-106887465D01*
X111221741Y-106884086D01*
X111539233Y-106789565D01*
X111646804Y-106757540D01*
X111656899Y-106754984D01*
X111975300Y-106688222D01*
X112090951Y-106663972D01*
X112101216Y-106662260D01*
X112265222Y-106641816D01*
X112541302Y-106607403D01*
X112551680Y-106606543D01*
X112956361Y-106589805D01*
X112980951Y-106591197D01*
X112984853Y-106591804D01*
X112984855Y-106591804D01*
X112993730Y-106593186D01*
X113002632Y-106592022D01*
X113002635Y-106592022D01*
X113025251Y-106589064D01*
X113041589Y-106588000D01*
X118026322Y-106588000D01*
X118094443Y-106608002D01*
G37*
%TD.AperFunction*%
%TA.AperFunction,Conductor*%
G36*
X121764121Y-106608002D02*
G01*
X121810614Y-106661658D01*
X121822000Y-106714000D01*
X121822000Y-106957885D01*
X121826475Y-106973124D01*
X121827865Y-106974329D01*
X121835548Y-106976000D01*
X122808000Y-106976000D01*
X122876121Y-106996002D01*
X122922614Y-107049658D01*
X122934000Y-107102000D01*
X122934000Y-108569884D01*
X122938475Y-108585123D01*
X122939865Y-108586328D01*
X122947548Y-108587999D01*
X123074669Y-108587999D01*
X123081490Y-108587629D01*
X123140207Y-108581252D01*
X123140431Y-108583312D01*
X123200541Y-108586449D01*
X123258186Y-108627893D01*
X123284274Y-108693923D01*
X123270521Y-108763575D01*
X123247886Y-108794426D01*
X122944988Y-109097324D01*
X122936208Y-109105314D01*
X122936206Y-109105316D01*
X122929513Y-109109563D01*
X122924087Y-109115341D01*
X122924086Y-109115342D01*
X122880989Y-109161236D01*
X122878234Y-109164078D01*
X122857666Y-109184646D01*
X122854949Y-109188149D01*
X122847241Y-109197174D01*
X122815621Y-109230846D01*
X122811800Y-109237797D01*
X122811799Y-109237798D01*
X122805290Y-109249637D01*
X122794436Y-109266161D01*
X122786611Y-109276250D01*
X122781289Y-109283111D01*
X122778142Y-109290383D01*
X122778141Y-109290385D01*
X122766100Y-109318209D01*
X122720689Y-109372783D01*
X122652981Y-109394143D01*
X122584474Y-109375506D01*
X122561368Y-109357263D01*
X121930635Y-108726530D01*
X121896609Y-108664218D01*
X121901674Y-108593403D01*
X121944221Y-108536567D01*
X122010741Y-108511756D01*
X122080240Y-108526915D01*
X122091946Y-108533324D01*
X122212394Y-108578478D01*
X122227649Y-108582105D01*
X122278514Y-108587631D01*
X122285328Y-108588000D01*
X122407885Y-108588000D01*
X122423124Y-108583525D01*
X122424329Y-108582135D01*
X122426000Y-108574452D01*
X122426000Y-107502115D01*
X122421525Y-107486876D01*
X122420135Y-107485671D01*
X122412452Y-107484000D01*
X121840116Y-107484000D01*
X121824877Y-107488475D01*
X121823672Y-107489865D01*
X121822001Y-107497548D01*
X121822001Y-108124669D01*
X121822371Y-108131490D01*
X121827895Y-108182352D01*
X121831521Y-108197604D01*
X121876676Y-108318054D01*
X121883085Y-108329760D01*
X121898254Y-108399117D01*
X121873518Y-108465665D01*
X121816730Y-108508276D01*
X121745920Y-108513421D01*
X121683470Y-108479365D01*
X120775405Y-107571300D01*
X120741379Y-107508988D01*
X120738500Y-107482205D01*
X120738500Y-107051866D01*
X120731745Y-106989684D01*
X120680615Y-106853295D01*
X120632852Y-106789565D01*
X120608004Y-106723059D01*
X120623057Y-106653676D01*
X120673231Y-106603446D01*
X120733678Y-106588000D01*
X121696000Y-106588000D01*
X121764121Y-106608002D01*
G37*
%TD.AperFunction*%
%TD*%
M02*
