M48
; DRILL file {KiCad (6.0.0)} date Sun Sep 18 22:54:27 2022
; FORMAT={-:-/ absolute / metric / decimal}
; #@! TF.CreationDate,2022-09-18T22:54:27-04:00
; #@! TF.GenerationSoftware,Kicad,Pcbnew,(6.0.0)
; #@! TF.FileFunction,MixedPlating,1,2
FMAT,2
METRIC
; #@! TA.AperFunction,Plated,PTH,ViaDrill
T1C0.400
; #@! TA.AperFunction,Plated,PTH,ComponentDrill
T2C1.000
; #@! TA.AperFunction,NonPlated,NPTH,ComponentDrill
T3C4.300
%
G90
G05
T1
X115.0Y-117.08
X116.0Y-107.08
X116.0Y-108.08
X116.0Y-117.08
X121.5Y-107.08
X123.353Y-111.252
X124.142Y-110.502
X125.0Y-109.74
X126.833Y-109.703
X127.508Y-108.966
X129.286Y-110.236
X130.302Y-111.506
X132.5Y-107.08
X132.5Y-108.08
X138.0Y-107.08
X138.0Y-108.08
X138.0Y-117.08
X139.0Y-117.08
T2
X119.38Y-107.95
X119.38Y-110.49
X119.38Y-113.03
X119.38Y-115.57
X134.62Y-107.95
X134.62Y-110.49
X134.62Y-113.03
X134.62Y-115.57
T3
X113.0Y-112.08
X141.0Y-112.08
T0
M30
