%TF.GenerationSoftware,KiCad,Pcbnew,(6.0.0)*%
%TF.CreationDate,2022-09-18T23:58:15-04:00*%
%TF.ProjectId,SergioPico,53657267-696f-4506-9963-6f2e6b696361,rev?*%
%TF.SameCoordinates,Original*%
%TF.FileFunction,Paste,Top*%
%TF.FilePolarity,Positive*%
%FSLAX46Y46*%
G04 Gerber Fmt 4.6, Leading zero omitted, Abs format (unit mm)*
G04 Created by KiCad (PCBNEW (6.0.0)) date 2022-09-18 23:58:15*
%MOMM*%
%LPD*%
G01*
G04 APERTURE LIST*
G04 Aperture macros list*
%AMRoundRect*
0 Rectangle with rounded corners*
0 $1 Rounding radius*
0 $2 $3 $4 $5 $6 $7 $8 $9 X,Y pos of 4 corners*
0 Add a 4 corners polygon primitive as box body*
4,1,4,$2,$3,$4,$5,$6,$7,$8,$9,$2,$3,0*
0 Add four circle primitives for the rounded corners*
1,1,$1+$1,$2,$3*
1,1,$1+$1,$4,$5*
1,1,$1+$1,$6,$7*
1,1,$1+$1,$8,$9*
0 Add four rect primitives between the rounded corners*
20,1,$1+$1,$2,$3,$4,$5,0*
20,1,$1+$1,$4,$5,$6,$7,0*
20,1,$1+$1,$6,$7,$8,$9,0*
20,1,$1+$1,$8,$9,$2,$3,0*%
G04 Aperture macros list end*
%ADD10RoundRect,0.155000X-0.212500X-0.155000X0.212500X-0.155000X0.212500X0.155000X-0.212500X0.155000X0*%
%ADD11R,0.900000X1.200000*%
%ADD12RoundRect,0.237500X0.250000X0.237500X-0.250000X0.237500X-0.250000X-0.237500X0.250000X-0.237500X0*%
%ADD13RoundRect,0.425000X-0.425000X-0.425000X0.425000X-0.425000X0.425000X0.425000X-0.425000X0.425000X0*%
%ADD14R,0.800000X1.900000*%
%ADD15R,2.550000X2.500000*%
G04 APERTURE END LIST*
D10*
%TO.C,C1*%
X199432500Y-151000000D03*
X200567500Y-151000000D03*
%TD*%
D11*
%TO.C,D2*%
X198350000Y-146000000D03*
X201650000Y-146000000D03*
%TD*%
D12*
%TO.C,R1*%
X206912500Y-138000000D03*
X205087500Y-138000000D03*
%TD*%
D13*
%TO.C,J1*%
X233380000Y-37170000D03*
X233380000Y-39710000D03*
X233380000Y-42250000D03*
X233380000Y-44790000D03*
X248620000Y-44790000D03*
X248620000Y-42250000D03*
X248620000Y-39710000D03*
X248620000Y-37170000D03*
%TD*%
D14*
%TO.C,Q1*%
X200950000Y-139562500D03*
X199050000Y-139562500D03*
X200000000Y-142562500D03*
%TD*%
D15*
%TO.C,SW2*%
X251915000Y-157540000D03*
X264842000Y-160080000D03*
%TD*%
%TO.C,SW20*%
X110915000Y-144540000D03*
X123842000Y-147080000D03*
%TD*%
%TO.C,SW18*%
X133915000Y-131540000D03*
X146842000Y-134080000D03*
%TD*%
%TO.C,SW10*%
X274915000Y-87540000D03*
X287842000Y-90080000D03*
%TD*%
%TO.C,SW3*%
X329915000Y-77540000D03*
X342842000Y-80080000D03*
%TD*%
%TO.C,SW15*%
X55915000Y-53540000D03*
X68842000Y-56080000D03*
%TD*%
%TO.C,SW4*%
X110915000Y-63540000D03*
X123842000Y-66080000D03*
%TD*%
%TO.C,SW19*%
X133915000Y-157540000D03*
X146842000Y-160080000D03*
%TD*%
%TO.C,SW5*%
X110915000Y-87540000D03*
X123842000Y-90080000D03*
%TD*%
%TO.C,SW11*%
X55915000Y-77540000D03*
X68842000Y-80080000D03*
%TD*%
%TO.C,SW1*%
X354915000Y-93540000D03*
X367842000Y-96080000D03*
%TD*%
%TO.C,SW13*%
X30915000Y-69540000D03*
X43842000Y-72080000D03*
%TD*%
%TO.C,SW12*%
X192915000Y-87540000D03*
X205842000Y-90080000D03*
%TD*%
%TO.C,SW9*%
X83915000Y-74540000D03*
X96842000Y-77080000D03*
%TD*%
%TO.C,SW6*%
X228915000Y-170540000D03*
X241842000Y-173080000D03*
%TD*%
%TO.C,SW17*%
X156915000Y-170540000D03*
X169842000Y-173080000D03*
%TD*%
%TO.C,SW8*%
X83915000Y-50540000D03*
X96842000Y-53080000D03*
%TD*%
%TO.C,SW16*%
X156915000Y-144540000D03*
X169842000Y-147080000D03*
%TD*%
%TO.C,SW7*%
X301915000Y-74540000D03*
X314842000Y-77080000D03*
%TD*%
%TO.C,SW14*%
X30915000Y-93540000D03*
X43842000Y-96080000D03*
%TD*%
M02*
