%TF.GenerationSoftware,KiCad,Pcbnew,(6.0.0)*%
%TF.CreationDate,2022-09-18T23:58:15-04:00*%
%TF.ProjectId,SergioPico,53657267-696f-4506-9963-6f2e6b696361,rev?*%
%TF.SameCoordinates,Original*%
%TF.FileFunction,Legend,Top*%
%TF.FilePolarity,Positive*%
%FSLAX46Y46*%
G04 Gerber Fmt 4.6, Leading zero omitted, Abs format (unit mm)*
G04 Created by KiCad (PCBNEW (6.0.0)) date 2022-09-18 23:58:15*
%MOMM*%
%LPD*%
G01*
G04 APERTURE LIST*
%ADD10C,0.150000*%
%ADD11C,0.100000*%
%ADD12C,0.120000*%
G04 APERTURE END LIST*
D10*
X271000000Y-172000000D02*
X309000000Y-172000000D01*
X309000000Y-172000000D02*
X309000000Y-178000000D01*
X309000000Y-178000000D02*
X271000000Y-178000000D01*
X271000000Y-178000000D02*
X271000000Y-172000000D01*
X271287976Y-173794761D02*
X271430833Y-173842380D01*
X271668928Y-173842380D01*
X271764166Y-173794761D01*
X271811785Y-173747142D01*
X271859404Y-173651904D01*
X271859404Y-173556666D01*
X271811785Y-173461428D01*
X271764166Y-173413809D01*
X271668928Y-173366190D01*
X271478452Y-173318571D01*
X271383214Y-173270952D01*
X271335595Y-173223333D01*
X271287976Y-173128095D01*
X271287976Y-173032857D01*
X271335595Y-172937619D01*
X271383214Y-172890000D01*
X271478452Y-172842380D01*
X271716547Y-172842380D01*
X271859404Y-172890000D01*
X272668928Y-173794761D02*
X272573690Y-173842380D01*
X272383214Y-173842380D01*
X272287976Y-173794761D01*
X272240357Y-173699523D01*
X272240357Y-173318571D01*
X272287976Y-173223333D01*
X272383214Y-173175714D01*
X272573690Y-173175714D01*
X272668928Y-173223333D01*
X272716547Y-173318571D01*
X272716547Y-173413809D01*
X272240357Y-173509047D01*
X273145119Y-173842380D02*
X273145119Y-173175714D01*
X273145119Y-173366190D02*
X273192738Y-173270952D01*
X273240357Y-173223333D01*
X273335595Y-173175714D01*
X273430833Y-173175714D01*
X274192738Y-173175714D02*
X274192738Y-173985238D01*
X274145119Y-174080476D01*
X274097500Y-174128095D01*
X274002261Y-174175714D01*
X273859404Y-174175714D01*
X273764166Y-174128095D01*
X274192738Y-173794761D02*
X274097500Y-173842380D01*
X273907023Y-173842380D01*
X273811785Y-173794761D01*
X273764166Y-173747142D01*
X273716547Y-173651904D01*
X273716547Y-173366190D01*
X273764166Y-173270952D01*
X273811785Y-173223333D01*
X273907023Y-173175714D01*
X274097500Y-173175714D01*
X274192738Y-173223333D01*
X274668928Y-173842380D02*
X274668928Y-173175714D01*
X274668928Y-172842380D02*
X274621309Y-172890000D01*
X274668928Y-172937619D01*
X274716547Y-172890000D01*
X274668928Y-172842380D01*
X274668928Y-172937619D01*
X275287976Y-173842380D02*
X275192738Y-173794761D01*
X275145119Y-173747142D01*
X275097500Y-173651904D01*
X275097500Y-173366190D01*
X275145119Y-173270952D01*
X275192738Y-173223333D01*
X275287976Y-173175714D01*
X275430833Y-173175714D01*
X275526071Y-173223333D01*
X275573690Y-173270952D01*
X275621309Y-173366190D01*
X275621309Y-173651904D01*
X275573690Y-173747142D01*
X275526071Y-173794761D01*
X275430833Y-173842380D01*
X275287976Y-173842380D01*
X276383214Y-173318571D02*
X276526071Y-173366190D01*
X276573690Y-173413809D01*
X276621309Y-173509047D01*
X276621309Y-173651904D01*
X276573690Y-173747142D01*
X276526071Y-173794761D01*
X276430833Y-173842380D01*
X276049880Y-173842380D01*
X276049880Y-172842380D01*
X276383214Y-172842380D01*
X276478452Y-172890000D01*
X276526071Y-172937619D01*
X276573690Y-173032857D01*
X276573690Y-173128095D01*
X276526071Y-173223333D01*
X276478452Y-173270952D01*
X276383214Y-173318571D01*
X276049880Y-173318571D01*
X277192738Y-173842380D02*
X277097500Y-173794761D01*
X277049880Y-173747142D01*
X277002261Y-173651904D01*
X277002261Y-173366190D01*
X277049880Y-173270952D01*
X277097500Y-173223333D01*
X277192738Y-173175714D01*
X277335595Y-173175714D01*
X277430833Y-173223333D01*
X277478452Y-173270952D01*
X277526071Y-173366190D01*
X277526071Y-173651904D01*
X277478452Y-173747142D01*
X277430833Y-173794761D01*
X277335595Y-173842380D01*
X277192738Y-173842380D01*
X277859404Y-173842380D02*
X278383214Y-173175714D01*
X277859404Y-173175714D02*
X278383214Y-173842380D01*
X280049880Y-173842380D02*
X279478452Y-173842380D01*
X279764166Y-173842380D02*
X279764166Y-172842380D01*
X279668928Y-172985238D01*
X279573690Y-173080476D01*
X279478452Y-173128095D01*
X280478452Y-173747142D02*
X280526071Y-173794761D01*
X280478452Y-173842380D01*
X280430833Y-173794761D01*
X280478452Y-173747142D01*
X280478452Y-173842380D01*
X281145119Y-172842380D02*
X281240357Y-172842380D01*
X281335595Y-172890000D01*
X281383214Y-172937619D01*
X281430833Y-173032857D01*
X281478452Y-173223333D01*
X281478452Y-173461428D01*
X281430833Y-173651904D01*
X281383214Y-173747142D01*
X281335595Y-173794761D01*
X281240357Y-173842380D01*
X281145119Y-173842380D01*
X281049880Y-173794761D01*
X281002261Y-173747142D01*
X280954642Y-173651904D01*
X280907023Y-173461428D01*
X280907023Y-173223333D01*
X280954642Y-173032857D01*
X281002261Y-172937619D01*
X281049880Y-172890000D01*
X281145119Y-172842380D01*
X271335595Y-177062380D02*
X271335595Y-176062380D01*
X271573690Y-176062380D01*
X271716547Y-176110000D01*
X271811785Y-176205238D01*
X271859404Y-176300476D01*
X271907023Y-176490952D01*
X271907023Y-176633809D01*
X271859404Y-176824285D01*
X271811785Y-176919523D01*
X271716547Y-177014761D01*
X271573690Y-177062380D01*
X271335595Y-177062380D01*
X272716547Y-177014761D02*
X272621309Y-177062380D01*
X272430833Y-177062380D01*
X272335595Y-177014761D01*
X272287976Y-176919523D01*
X272287976Y-176538571D01*
X272335595Y-176443333D01*
X272430833Y-176395714D01*
X272621309Y-176395714D01*
X272716547Y-176443333D01*
X272764166Y-176538571D01*
X272764166Y-176633809D01*
X272287976Y-176729047D01*
X273145119Y-177014761D02*
X273240357Y-177062380D01*
X273430833Y-177062380D01*
X273526071Y-177014761D01*
X273573690Y-176919523D01*
X273573690Y-176871904D01*
X273526071Y-176776666D01*
X273430833Y-176729047D01*
X273287976Y-176729047D01*
X273192738Y-176681428D01*
X273145119Y-176586190D01*
X273145119Y-176538571D01*
X273192738Y-176443333D01*
X273287976Y-176395714D01*
X273430833Y-176395714D01*
X273526071Y-176443333D01*
X274002261Y-177062380D02*
X274002261Y-176395714D01*
X274002261Y-176062380D02*
X273954642Y-176110000D01*
X274002261Y-176157619D01*
X274049880Y-176110000D01*
X274002261Y-176062380D01*
X274002261Y-176157619D01*
X274907023Y-176395714D02*
X274907023Y-177205238D01*
X274859404Y-177300476D01*
X274811785Y-177348095D01*
X274716547Y-177395714D01*
X274573690Y-177395714D01*
X274478452Y-177348095D01*
X274907023Y-177014761D02*
X274811785Y-177062380D01*
X274621309Y-177062380D01*
X274526071Y-177014761D01*
X274478452Y-176967142D01*
X274430833Y-176871904D01*
X274430833Y-176586190D01*
X274478452Y-176490952D01*
X274526071Y-176443333D01*
X274621309Y-176395714D01*
X274811785Y-176395714D01*
X274907023Y-176443333D01*
X275383214Y-176395714D02*
X275383214Y-177062380D01*
X275383214Y-176490952D02*
X275430833Y-176443333D01*
X275526071Y-176395714D01*
X275668928Y-176395714D01*
X275764166Y-176443333D01*
X275811785Y-176538571D01*
X275811785Y-177062380D01*
X276668928Y-177014761D02*
X276573690Y-177062380D01*
X276383214Y-177062380D01*
X276287976Y-177014761D01*
X276240357Y-176919523D01*
X276240357Y-176538571D01*
X276287976Y-176443333D01*
X276383214Y-176395714D01*
X276573690Y-176395714D01*
X276668928Y-176443333D01*
X276716547Y-176538571D01*
X276716547Y-176633809D01*
X276240357Y-176729047D01*
X277573690Y-177062380D02*
X277573690Y-176062380D01*
X277573690Y-177014761D02*
X277478452Y-177062380D01*
X277287976Y-177062380D01*
X277192738Y-177014761D01*
X277145119Y-176967142D01*
X277097500Y-176871904D01*
X277097500Y-176586190D01*
X277145119Y-176490952D01*
X277192738Y-176443333D01*
X277287976Y-176395714D01*
X277478452Y-176395714D01*
X277573690Y-176443333D01*
X278811785Y-177062380D02*
X278811785Y-176062380D01*
X278811785Y-176443333D02*
X278907023Y-176395714D01*
X279097500Y-176395714D01*
X279192738Y-176443333D01*
X279240357Y-176490952D01*
X279287976Y-176586190D01*
X279287976Y-176871904D01*
X279240357Y-176967142D01*
X279192738Y-177014761D01*
X279097500Y-177062380D01*
X278907023Y-177062380D01*
X278811785Y-177014761D01*
X279621309Y-176395714D02*
X279859404Y-177062380D01*
X280097500Y-176395714D02*
X279859404Y-177062380D01*
X279764166Y-177300476D01*
X279716547Y-177348095D01*
X279621309Y-177395714D01*
X281192738Y-177014761D02*
X281335595Y-177062380D01*
X281573690Y-177062380D01*
X281668928Y-177014761D01*
X281716547Y-176967142D01*
X281764166Y-176871904D01*
X281764166Y-176776666D01*
X281716547Y-176681428D01*
X281668928Y-176633809D01*
X281573690Y-176586190D01*
X281383214Y-176538571D01*
X281287976Y-176490952D01*
X281240357Y-176443333D01*
X281192738Y-176348095D01*
X281192738Y-176252857D01*
X281240357Y-176157619D01*
X281287976Y-176110000D01*
X281383214Y-176062380D01*
X281621309Y-176062380D01*
X281764166Y-176110000D01*
X282573690Y-177014761D02*
X282478452Y-177062380D01*
X282287976Y-177062380D01*
X282192738Y-177014761D01*
X282145119Y-176919523D01*
X282145119Y-176538571D01*
X282192738Y-176443333D01*
X282287976Y-176395714D01*
X282478452Y-176395714D01*
X282573690Y-176443333D01*
X282621309Y-176538571D01*
X282621309Y-176633809D01*
X282145119Y-176729047D01*
X283049880Y-177062380D02*
X283049880Y-176395714D01*
X283049880Y-176586190D02*
X283097500Y-176490952D01*
X283145119Y-176443333D01*
X283240357Y-176395714D01*
X283335595Y-176395714D01*
X284097500Y-176395714D02*
X284097500Y-177205238D01*
X284049880Y-177300476D01*
X284002261Y-177348095D01*
X283907023Y-177395714D01*
X283764166Y-177395714D01*
X283668928Y-177348095D01*
X284097500Y-177014761D02*
X284002261Y-177062380D01*
X283811785Y-177062380D01*
X283716547Y-177014761D01*
X283668928Y-176967142D01*
X283621309Y-176871904D01*
X283621309Y-176586190D01*
X283668928Y-176490952D01*
X283716547Y-176443333D01*
X283811785Y-176395714D01*
X284002261Y-176395714D01*
X284097500Y-176443333D01*
X284573690Y-177062380D02*
X284573690Y-176395714D01*
X284573690Y-176062380D02*
X284526071Y-176110000D01*
X284573690Y-176157619D01*
X284621309Y-176110000D01*
X284573690Y-176062380D01*
X284573690Y-176157619D01*
X285192738Y-177062380D02*
X285097500Y-177014761D01*
X285049880Y-176967142D01*
X285002261Y-176871904D01*
X285002261Y-176586190D01*
X285049880Y-176490952D01*
X285097500Y-176443333D01*
X285192738Y-176395714D01*
X285335595Y-176395714D01*
X285430833Y-176443333D01*
X285478452Y-176490952D01*
X285526071Y-176586190D01*
X285526071Y-176871904D01*
X285478452Y-176967142D01*
X285430833Y-177014761D01*
X285335595Y-177062380D01*
X285192738Y-177062380D01*
X286668928Y-176062380D02*
X286668928Y-176252857D01*
X287049880Y-176062380D02*
X287049880Y-176252857D01*
X287478452Y-177062380D02*
X287478452Y-176062380D01*
X287811785Y-176776666D01*
X288145119Y-176062380D01*
X288145119Y-177062380D01*
X288621309Y-177062380D02*
X288621309Y-176395714D01*
X288621309Y-176586190D02*
X288668928Y-176490952D01*
X288716547Y-176443333D01*
X288811785Y-176395714D01*
X288907023Y-176395714D01*
X289240357Y-176967142D02*
X289287976Y-177014761D01*
X289240357Y-177062380D01*
X289192738Y-177014761D01*
X289240357Y-176967142D01*
X289240357Y-177062380D01*
X290478452Y-177062380D02*
X290478452Y-176062380D01*
X290859404Y-176062380D01*
X290954642Y-176110000D01*
X291002261Y-176157619D01*
X291049880Y-176252857D01*
X291049880Y-176395714D01*
X291002261Y-176490952D01*
X290954642Y-176538571D01*
X290859404Y-176586190D01*
X290478452Y-176586190D01*
X291621309Y-177062380D02*
X291526071Y-177014761D01*
X291478452Y-176967142D01*
X291430833Y-176871904D01*
X291430833Y-176586190D01*
X291478452Y-176490952D01*
X291526071Y-176443333D01*
X291621309Y-176395714D01*
X291764166Y-176395714D01*
X291859404Y-176443333D01*
X291907023Y-176490952D01*
X291954642Y-176586190D01*
X291954642Y-176871904D01*
X291907023Y-176967142D01*
X291859404Y-177014761D01*
X291764166Y-177062380D01*
X291621309Y-177062380D01*
X292240357Y-176395714D02*
X292621309Y-176395714D01*
X292383214Y-176062380D02*
X292383214Y-176919523D01*
X292430833Y-177014761D01*
X292526071Y-177062380D01*
X292621309Y-177062380D01*
X293383214Y-177062380D02*
X293383214Y-176538571D01*
X293335595Y-176443333D01*
X293240357Y-176395714D01*
X293049880Y-176395714D01*
X292954642Y-176443333D01*
X293383214Y-177014761D02*
X293287976Y-177062380D01*
X293049880Y-177062380D01*
X292954642Y-177014761D01*
X292907023Y-176919523D01*
X292907023Y-176824285D01*
X292954642Y-176729047D01*
X293049880Y-176681428D01*
X293287976Y-176681428D01*
X293383214Y-176633809D01*
X293716547Y-176395714D02*
X294097500Y-176395714D01*
X293859404Y-176062380D02*
X293859404Y-176919523D01*
X293907023Y-177014761D01*
X294002261Y-177062380D01*
X294097500Y-177062380D01*
X294573690Y-177062380D02*
X294478452Y-177014761D01*
X294430833Y-176967142D01*
X294383214Y-176871904D01*
X294383214Y-176586190D01*
X294430833Y-176490952D01*
X294478452Y-176443333D01*
X294573690Y-176395714D01*
X294716547Y-176395714D01*
X294811785Y-176443333D01*
X294859404Y-176490952D01*
X294907023Y-176586190D01*
X294907023Y-176871904D01*
X294859404Y-176967142D01*
X294811785Y-177014761D01*
X294716547Y-177062380D01*
X294573690Y-177062380D01*
X295335595Y-177062380D02*
X295335595Y-176062380D01*
X295335595Y-176443333D02*
X295430833Y-176395714D01*
X295621309Y-176395714D01*
X295716547Y-176443333D01*
X295764166Y-176490952D01*
X295811785Y-176586190D01*
X295811785Y-176871904D01*
X295764166Y-176967142D01*
X295716547Y-177014761D01*
X295621309Y-177062380D01*
X295430833Y-177062380D01*
X295335595Y-177014761D01*
X296240357Y-177062380D02*
X296240357Y-176395714D01*
X296240357Y-176586190D02*
X296287976Y-176490952D01*
X296335595Y-176443333D01*
X296430833Y-176395714D01*
X296526071Y-176395714D01*
X297240357Y-177014761D02*
X297145119Y-177062380D01*
X296954642Y-177062380D01*
X296859404Y-177014761D01*
X296811785Y-176919523D01*
X296811785Y-176538571D01*
X296859404Y-176443333D01*
X296954642Y-176395714D01*
X297145119Y-176395714D01*
X297240357Y-176443333D01*
X297287976Y-176538571D01*
X297287976Y-176633809D01*
X296811785Y-176729047D01*
X298145119Y-177062380D02*
X298145119Y-176538571D01*
X298097500Y-176443333D01*
X298002261Y-176395714D01*
X297811785Y-176395714D01*
X297716547Y-176443333D01*
X298145119Y-177014761D02*
X298049880Y-177062380D01*
X297811785Y-177062380D01*
X297716547Y-177014761D01*
X297668928Y-176919523D01*
X297668928Y-176824285D01*
X297716547Y-176729047D01*
X297811785Y-176681428D01*
X298049880Y-176681428D01*
X298145119Y-176633809D01*
X299049880Y-177062380D02*
X299049880Y-176062380D01*
X299049880Y-177014761D02*
X298954642Y-177062380D01*
X298764166Y-177062380D01*
X298668928Y-177014761D01*
X298621309Y-176967142D01*
X298573690Y-176871904D01*
X298573690Y-176586190D01*
X298621309Y-176490952D01*
X298668928Y-176443333D01*
X298764166Y-176395714D01*
X298954642Y-176395714D01*
X299049880Y-176443333D01*
X299478452Y-176062380D02*
X299478452Y-176252857D01*
X299859404Y-176062380D02*
X299859404Y-176252857D01*
X301049880Y-177062380D02*
X301049880Y-176062380D01*
X301287976Y-176062380D01*
X301430833Y-176110000D01*
X301526071Y-176205238D01*
X301573690Y-176300476D01*
X301621309Y-176490952D01*
X301621309Y-176633809D01*
X301573690Y-176824285D01*
X301526071Y-176919523D01*
X301430833Y-177014761D01*
X301287976Y-177062380D01*
X301049880Y-177062380D01*
X302049880Y-177062380D02*
X302049880Y-176062380D01*
X302478452Y-177062380D02*
X302478452Y-176538571D01*
X302430833Y-176443333D01*
X302335595Y-176395714D01*
X302192738Y-176395714D01*
X302097500Y-176443333D01*
X302049880Y-176490952D01*
X303335595Y-177014761D02*
X303240357Y-177062380D01*
X303049880Y-177062380D01*
X302954642Y-177014761D01*
X302907023Y-176919523D01*
X302907023Y-176538571D01*
X302954642Y-176443333D01*
X303049880Y-176395714D01*
X303240357Y-176395714D01*
X303335595Y-176443333D01*
X303383214Y-176538571D01*
X303383214Y-176633809D01*
X302907023Y-176729047D01*
X303954642Y-177062380D02*
X303859404Y-177014761D01*
X303811785Y-176919523D01*
X303811785Y-176062380D01*
X304478452Y-177062380D02*
X304383214Y-177014761D01*
X304335595Y-176967142D01*
X304287976Y-176871904D01*
X304287976Y-176586190D01*
X304335595Y-176490952D01*
X304383214Y-176443333D01*
X304478452Y-176395714D01*
X304621309Y-176395714D01*
X304716547Y-176443333D01*
X304764166Y-176490952D01*
X304811785Y-176586190D01*
X304811785Y-176871904D01*
X304764166Y-176967142D01*
X304716547Y-177014761D01*
X304621309Y-177062380D01*
X304478452Y-177062380D01*
X305240357Y-177062380D02*
X305240357Y-176395714D01*
X305240357Y-176490952D02*
X305287976Y-176443333D01*
X305383214Y-176395714D01*
X305526071Y-176395714D01*
X305621309Y-176443333D01*
X305668928Y-176538571D01*
X305668928Y-177062380D01*
X305668928Y-176538571D02*
X305716547Y-176443333D01*
X305811785Y-176395714D01*
X305954642Y-176395714D01*
X306049880Y-176443333D01*
X306097500Y-176538571D01*
X306097500Y-177062380D01*
X306573690Y-177062380D02*
X306573690Y-176395714D01*
X306573690Y-176490952D02*
X306621309Y-176443333D01*
X306716547Y-176395714D01*
X306859404Y-176395714D01*
X306954642Y-176443333D01*
X307002261Y-176538571D01*
X307002261Y-177062380D01*
X307002261Y-176538571D02*
X307049880Y-176443333D01*
X307145119Y-176395714D01*
X307287976Y-176395714D01*
X307383214Y-176443333D01*
X307430833Y-176538571D01*
X307430833Y-177062380D01*
X308287976Y-177014761D02*
X308192738Y-177062380D01*
X308002261Y-177062380D01*
X307907023Y-177014761D01*
X307859404Y-176919523D01*
X307859404Y-176538571D01*
X307907023Y-176443333D01*
X308002261Y-176395714D01*
X308192738Y-176395714D01*
X308287976Y-176443333D01*
X308335595Y-176538571D01*
X308335595Y-176633809D01*
X307859404Y-176729047D01*
%TO.C,C1*%
X199833333Y-150197142D02*
X199785714Y-150244761D01*
X199642857Y-150292380D01*
X199547619Y-150292380D01*
X199404761Y-150244761D01*
X199309523Y-150149523D01*
X199261904Y-150054285D01*
X199214285Y-149863809D01*
X199214285Y-149720952D01*
X199261904Y-149530476D01*
X199309523Y-149435238D01*
X199404761Y-149340000D01*
X199547619Y-149292380D01*
X199642857Y-149292380D01*
X199785714Y-149340000D01*
X199833333Y-149387619D01*
X200785714Y-150292380D02*
X200214285Y-150292380D01*
X200500000Y-150292380D02*
X200500000Y-149292380D01*
X200404761Y-149435238D01*
X200309523Y-149530476D01*
X200214285Y-149578095D01*
%TO.C,M2*%
X323190476Y-158122380D02*
X323190476Y-157122380D01*
X323523809Y-157836666D01*
X323857142Y-157122380D01*
X323857142Y-158122380D01*
X324285714Y-157217619D02*
X324333333Y-157170000D01*
X324428571Y-157122380D01*
X324666666Y-157122380D01*
X324761904Y-157170000D01*
X324809523Y-157217619D01*
X324857142Y-157312857D01*
X324857142Y-157408095D01*
X324809523Y-157550952D01*
X324238095Y-158122380D01*
X324857142Y-158122380D01*
%TO.C,U1*%
X269547619Y-120452380D02*
X269547619Y-119452380D01*
X269928571Y-119452380D01*
X270023809Y-119500000D01*
X270071428Y-119547619D01*
X270119047Y-119642857D01*
X270119047Y-119785714D01*
X270071428Y-119880952D01*
X270023809Y-119928571D01*
X269928571Y-119976190D01*
X269547619Y-119976190D01*
X270547619Y-120452380D02*
X270547619Y-119785714D01*
X270547619Y-119452380D02*
X270500000Y-119500000D01*
X270547619Y-119547619D01*
X270595238Y-119500000D01*
X270547619Y-119452380D01*
X270547619Y-119547619D01*
X271452380Y-120404761D02*
X271357142Y-120452380D01*
X271166666Y-120452380D01*
X271071428Y-120404761D01*
X271023809Y-120357142D01*
X270976190Y-120261904D01*
X270976190Y-119976190D01*
X271023809Y-119880952D01*
X271071428Y-119833333D01*
X271166666Y-119785714D01*
X271357142Y-119785714D01*
X271452380Y-119833333D01*
X272023809Y-120452380D02*
X271928571Y-120404761D01*
X271880952Y-120357142D01*
X271833333Y-120261904D01*
X271833333Y-119976190D01*
X271880952Y-119880952D01*
X271928571Y-119833333D01*
X272023809Y-119785714D01*
X272166666Y-119785714D01*
X272261904Y-119833333D01*
X272309523Y-119880952D01*
X272357142Y-119976190D01*
X272357142Y-120261904D01*
X272309523Y-120357142D01*
X272261904Y-120404761D01*
X272166666Y-120452380D01*
X272023809Y-120452380D01*
X272547619Y-120547619D02*
X273309523Y-120547619D01*
X274119047Y-120452380D02*
X273785714Y-119976190D01*
X273547619Y-120452380D02*
X273547619Y-119452380D01*
X273928571Y-119452380D01*
X274023809Y-119500000D01*
X274071428Y-119547619D01*
X274119047Y-119642857D01*
X274119047Y-119785714D01*
X274071428Y-119880952D01*
X274023809Y-119928571D01*
X273928571Y-119976190D01*
X273547619Y-119976190D01*
X274928571Y-120404761D02*
X274833333Y-120452380D01*
X274642857Y-120452380D01*
X274547619Y-120404761D01*
X274500000Y-120309523D01*
X274500000Y-119928571D01*
X274547619Y-119833333D01*
X274642857Y-119785714D01*
X274833333Y-119785714D01*
X274928571Y-119833333D01*
X274976190Y-119928571D01*
X274976190Y-120023809D01*
X274500000Y-120119047D01*
X275833333Y-120404761D02*
X275738095Y-120452380D01*
X275547619Y-120452380D01*
X275452380Y-120404761D01*
X275404761Y-120357142D01*
X275357142Y-120261904D01*
X275357142Y-119976190D01*
X275404761Y-119880952D01*
X275452380Y-119833333D01*
X275547619Y-119785714D01*
X275738095Y-119785714D01*
X275833333Y-119833333D01*
X276119047Y-119785714D02*
X276500000Y-119785714D01*
X276261904Y-119452380D02*
X276261904Y-120309523D01*
X276309523Y-120404761D01*
X276404761Y-120452380D01*
X276500000Y-120452380D01*
X277261904Y-120452380D02*
X277261904Y-119928571D01*
X277214285Y-119833333D01*
X277119047Y-119785714D01*
X276928571Y-119785714D01*
X276833333Y-119833333D01*
X277261904Y-120404761D02*
X277166666Y-120452380D01*
X276928571Y-120452380D01*
X276833333Y-120404761D01*
X276785714Y-120309523D01*
X276785714Y-120214285D01*
X276833333Y-120119047D01*
X276928571Y-120071428D01*
X277166666Y-120071428D01*
X277261904Y-120023809D01*
X277738095Y-119785714D02*
X277738095Y-120452380D01*
X277738095Y-119880952D02*
X277785714Y-119833333D01*
X277880952Y-119785714D01*
X278023809Y-119785714D01*
X278119047Y-119833333D01*
X278166666Y-119928571D01*
X278166666Y-120452380D01*
X279071428Y-119785714D02*
X279071428Y-120595238D01*
X279023809Y-120690476D01*
X278976190Y-120738095D01*
X278880952Y-120785714D01*
X278738095Y-120785714D01*
X278642857Y-120738095D01*
X279071428Y-120404761D02*
X278976190Y-120452380D01*
X278785714Y-120452380D01*
X278690476Y-120404761D01*
X278642857Y-120357142D01*
X278595238Y-120261904D01*
X278595238Y-119976190D01*
X278642857Y-119880952D01*
X278690476Y-119833333D01*
X278785714Y-119785714D01*
X278976190Y-119785714D01*
X279071428Y-119833333D01*
X279690476Y-120452380D02*
X279595238Y-120404761D01*
X279547619Y-120309523D01*
X279547619Y-119452380D01*
X280452380Y-120404761D02*
X280357142Y-120452380D01*
X280166666Y-120452380D01*
X280071428Y-120404761D01*
X280023809Y-120309523D01*
X280023809Y-119928571D01*
X280071428Y-119833333D01*
X280166666Y-119785714D01*
X280357142Y-119785714D01*
X280452380Y-119833333D01*
X280500000Y-119928571D01*
X280500000Y-120023809D01*
X280023809Y-120119047D01*
X268102380Y-114459523D02*
X268102380Y-113840476D01*
X268483333Y-114173809D01*
X268483333Y-114030952D01*
X268530952Y-113935714D01*
X268578571Y-113888095D01*
X268673809Y-113840476D01*
X268911904Y-113840476D01*
X269007142Y-113888095D01*
X269054761Y-113935714D01*
X269102380Y-114030952D01*
X269102380Y-114316666D01*
X269054761Y-114411904D01*
X269007142Y-114459523D01*
X268102380Y-113507142D02*
X268102380Y-112888095D01*
X268483333Y-113221428D01*
X268483333Y-113078571D01*
X268530952Y-112983333D01*
X268578571Y-112935714D01*
X268673809Y-112888095D01*
X268911904Y-112888095D01*
X269007142Y-112935714D01*
X269054761Y-112983333D01*
X269102380Y-113078571D01*
X269102380Y-113364285D01*
X269054761Y-113459523D01*
X269007142Y-113507142D01*
X281802380Y-126540476D02*
X281802380Y-127111904D01*
X281802380Y-126826190D02*
X280802380Y-126826190D01*
X280945238Y-126921428D01*
X281040476Y-127016666D01*
X281088095Y-127111904D01*
X280802380Y-126207142D02*
X280802380Y-125588095D01*
X281183333Y-125921428D01*
X281183333Y-125778571D01*
X281230952Y-125683333D01*
X281278571Y-125635714D01*
X281373809Y-125588095D01*
X281611904Y-125588095D01*
X281707142Y-125635714D01*
X281754761Y-125683333D01*
X281802380Y-125778571D01*
X281802380Y-126064285D01*
X281754761Y-126159523D01*
X281707142Y-126207142D01*
X294502380Y-126540476D02*
X294502380Y-127111904D01*
X294502380Y-126826190D02*
X293502380Y-126826190D01*
X293645238Y-126921428D01*
X293740476Y-127016666D01*
X293788095Y-127111904D01*
X293930952Y-125969047D02*
X293883333Y-126064285D01*
X293835714Y-126111904D01*
X293740476Y-126159523D01*
X293692857Y-126159523D01*
X293597619Y-126111904D01*
X293550000Y-126064285D01*
X293502380Y-125969047D01*
X293502380Y-125778571D01*
X293550000Y-125683333D01*
X293597619Y-125635714D01*
X293692857Y-125588095D01*
X293740476Y-125588095D01*
X293835714Y-125635714D01*
X293883333Y-125683333D01*
X293930952Y-125778571D01*
X293930952Y-125969047D01*
X293978571Y-126064285D01*
X294026190Y-126111904D01*
X294121428Y-126159523D01*
X294311904Y-126159523D01*
X294407142Y-126111904D01*
X294454761Y-126064285D01*
X294502380Y-125969047D01*
X294502380Y-125778571D01*
X294454761Y-125683333D01*
X294407142Y-125635714D01*
X294311904Y-125588095D01*
X294121428Y-125588095D01*
X294026190Y-125635714D01*
X293978571Y-125683333D01*
X293930952Y-125778571D01*
X255402380Y-126683333D02*
X255402380Y-126064285D01*
X255783333Y-126397619D01*
X255783333Y-126254761D01*
X255830952Y-126159523D01*
X255878571Y-126111904D01*
X255973809Y-126064285D01*
X256211904Y-126064285D01*
X256307142Y-126111904D01*
X256354761Y-126159523D01*
X256402380Y-126254761D01*
X256402380Y-126540476D01*
X256354761Y-126635714D01*
X256307142Y-126683333D01*
X268530952Y-126445238D02*
X268483333Y-126540476D01*
X268435714Y-126588095D01*
X268340476Y-126635714D01*
X268292857Y-126635714D01*
X268197619Y-126588095D01*
X268150000Y-126540476D01*
X268102380Y-126445238D01*
X268102380Y-126254761D01*
X268150000Y-126159523D01*
X268197619Y-126111904D01*
X268292857Y-126064285D01*
X268340476Y-126064285D01*
X268435714Y-126111904D01*
X268483333Y-126159523D01*
X268530952Y-126254761D01*
X268530952Y-126445238D01*
X268578571Y-126540476D01*
X268626190Y-126588095D01*
X268721428Y-126635714D01*
X268911904Y-126635714D01*
X269007142Y-126588095D01*
X269054761Y-126540476D01*
X269102380Y-126445238D01*
X269102380Y-126254761D01*
X269054761Y-126159523D01*
X269007142Y-126111904D01*
X268911904Y-126064285D01*
X268721428Y-126064285D01*
X268626190Y-126111904D01*
X268578571Y-126159523D01*
X268530952Y-126254761D01*
X255402380Y-114459523D02*
X255402380Y-113840476D01*
X255783333Y-114173809D01*
X255783333Y-114030952D01*
X255830952Y-113935714D01*
X255878571Y-113888095D01*
X255973809Y-113840476D01*
X256211904Y-113840476D01*
X256307142Y-113888095D01*
X256354761Y-113935714D01*
X256402380Y-114030952D01*
X256402380Y-114316666D01*
X256354761Y-114411904D01*
X256307142Y-114459523D01*
X255830952Y-113269047D02*
X255783333Y-113364285D01*
X255735714Y-113411904D01*
X255640476Y-113459523D01*
X255592857Y-113459523D01*
X255497619Y-113411904D01*
X255450000Y-113364285D01*
X255402380Y-113269047D01*
X255402380Y-113078571D01*
X255450000Y-112983333D01*
X255497619Y-112935714D01*
X255592857Y-112888095D01*
X255640476Y-112888095D01*
X255735714Y-112935714D01*
X255783333Y-112983333D01*
X255830952Y-113078571D01*
X255830952Y-113269047D01*
X255878571Y-113364285D01*
X255926190Y-113411904D01*
X256021428Y-113459523D01*
X256211904Y-113459523D01*
X256307142Y-113411904D01*
X256354761Y-113364285D01*
X256402380Y-113269047D01*
X256402380Y-113078571D01*
X256354761Y-112983333D01*
X256307142Y-112935714D01*
X256211904Y-112888095D01*
X256021428Y-112888095D01*
X255926190Y-112935714D01*
X255878571Y-112983333D01*
X255830952Y-113078571D01*
X280897619Y-114411904D02*
X280850000Y-114364285D01*
X280802380Y-114269047D01*
X280802380Y-114030952D01*
X280850000Y-113935714D01*
X280897619Y-113888095D01*
X280992857Y-113840476D01*
X281088095Y-113840476D01*
X281230952Y-113888095D01*
X281802380Y-114459523D01*
X281802380Y-113840476D01*
X281230952Y-113269047D02*
X281183333Y-113364285D01*
X281135714Y-113411904D01*
X281040476Y-113459523D01*
X280992857Y-113459523D01*
X280897619Y-113411904D01*
X280850000Y-113364285D01*
X280802380Y-113269047D01*
X280802380Y-113078571D01*
X280850000Y-112983333D01*
X280897619Y-112935714D01*
X280992857Y-112888095D01*
X281040476Y-112888095D01*
X281135714Y-112935714D01*
X281183333Y-112983333D01*
X281230952Y-113078571D01*
X281230952Y-113269047D01*
X281278571Y-113364285D01*
X281326190Y-113411904D01*
X281421428Y-113459523D01*
X281611904Y-113459523D01*
X281707142Y-113411904D01*
X281754761Y-113364285D01*
X281802380Y-113269047D01*
X281802380Y-113078571D01*
X281754761Y-112983333D01*
X281707142Y-112935714D01*
X281611904Y-112888095D01*
X281421428Y-112888095D01*
X281326190Y-112935714D01*
X281278571Y-112983333D01*
X281230952Y-113078571D01*
D11*
X263133333Y-126000000D02*
X263033333Y-125966666D01*
X263000000Y-125933333D01*
X262966666Y-125866666D01*
X262966666Y-125766666D01*
X263000000Y-125700000D01*
X263033333Y-125666666D01*
X263100000Y-125633333D01*
X263366666Y-125633333D01*
X263366666Y-126333333D01*
X263133333Y-126333333D01*
X263066666Y-126300000D01*
X263033333Y-126266666D01*
X263000000Y-126200000D01*
X263000000Y-126133333D01*
X263033333Y-126066666D01*
X263066666Y-126033333D01*
X263133333Y-126000000D01*
X263366666Y-126000000D01*
X262533333Y-126333333D02*
X262400000Y-126333333D01*
X262333333Y-126300000D01*
X262266666Y-126233333D01*
X262233333Y-126100000D01*
X262233333Y-125866666D01*
X262266666Y-125733333D01*
X262333333Y-125666666D01*
X262400000Y-125633333D01*
X262533333Y-125633333D01*
X262600000Y-125666666D01*
X262666666Y-125733333D01*
X262700000Y-125866666D01*
X262700000Y-126100000D01*
X262666666Y-126233333D01*
X262600000Y-126300000D01*
X262533333Y-126333333D01*
X261800000Y-126333333D02*
X261666666Y-126333333D01*
X261600000Y-126300000D01*
X261533333Y-126233333D01*
X261500000Y-126100000D01*
X261500000Y-125866666D01*
X261533333Y-125733333D01*
X261600000Y-125666666D01*
X261666666Y-125633333D01*
X261800000Y-125633333D01*
X261866666Y-125666666D01*
X261933333Y-125733333D01*
X261966666Y-125866666D01*
X261966666Y-126100000D01*
X261933333Y-126233333D01*
X261866666Y-126300000D01*
X261800000Y-126333333D01*
X261300000Y-126333333D02*
X260900000Y-126333333D01*
X261100000Y-125633333D02*
X261100000Y-126333333D01*
X260700000Y-125666666D02*
X260600000Y-125633333D01*
X260433333Y-125633333D01*
X260366666Y-125666666D01*
X260333333Y-125700000D01*
X260300000Y-125766666D01*
X260300000Y-125833333D01*
X260333333Y-125900000D01*
X260366666Y-125933333D01*
X260433333Y-125966666D01*
X260566666Y-126000000D01*
X260633333Y-126033333D01*
X260666666Y-126066666D01*
X260700000Y-126133333D01*
X260700000Y-126200000D01*
X260666666Y-126266666D01*
X260633333Y-126300000D01*
X260566666Y-126333333D01*
X260400000Y-126333333D01*
X260300000Y-126300000D01*
X260000000Y-126000000D02*
X259766666Y-126000000D01*
X259666666Y-125633333D02*
X260000000Y-125633333D01*
X260000000Y-126333333D01*
X259666666Y-126333333D01*
X259033333Y-125633333D02*
X259366666Y-125633333D01*
X259366666Y-126333333D01*
D10*
X293597619Y-114411904D02*
X293550000Y-114364285D01*
X293502380Y-114269047D01*
X293502380Y-114030952D01*
X293550000Y-113935714D01*
X293597619Y-113888095D01*
X293692857Y-113840476D01*
X293788095Y-113840476D01*
X293930952Y-113888095D01*
X294502380Y-114459523D01*
X294502380Y-113840476D01*
X293502380Y-113507142D02*
X293502380Y-112888095D01*
X293883333Y-113221428D01*
X293883333Y-113078571D01*
X293930952Y-112983333D01*
X293978571Y-112935714D01*
X294073809Y-112888095D01*
X294311904Y-112888095D01*
X294407142Y-112935714D01*
X294454761Y-112983333D01*
X294502380Y-113078571D01*
X294502380Y-113364285D01*
X294454761Y-113459523D01*
X294407142Y-113507142D01*
%TO.C,D2*%
X202023917Y-144453317D02*
X202023917Y-143453317D01*
X202262013Y-143453317D01*
X202404870Y-143500937D01*
X202500108Y-143596175D01*
X202547727Y-143691413D01*
X202595346Y-143881889D01*
X202595346Y-144024746D01*
X202547727Y-144215222D01*
X202500108Y-144310460D01*
X202404870Y-144405698D01*
X202262013Y-144453317D01*
X202023917Y-144453317D01*
X202976298Y-143548556D02*
X203023917Y-143500937D01*
X203119155Y-143453317D01*
X203357251Y-143453317D01*
X203452489Y-143500937D01*
X203500108Y-143548556D01*
X203547727Y-143643794D01*
X203547727Y-143739032D01*
X203500108Y-143881889D01*
X202928679Y-144453317D01*
X203547727Y-144453317D01*
%TO.C,R1*%
X205833333Y-139882380D02*
X205500000Y-139406190D01*
X205261904Y-139882380D02*
X205261904Y-138882380D01*
X205642857Y-138882380D01*
X205738095Y-138930000D01*
X205785714Y-138977619D01*
X205833333Y-139072857D01*
X205833333Y-139215714D01*
X205785714Y-139310952D01*
X205738095Y-139358571D01*
X205642857Y-139406190D01*
X205261904Y-139406190D01*
X206785714Y-139882380D02*
X206214285Y-139882380D01*
X206500000Y-139882380D02*
X206500000Y-138882380D01*
X206404761Y-139025238D01*
X206309523Y-139120476D01*
X206214285Y-139168095D01*
%TO.C,J1*%
X240666666Y-39752380D02*
X240666666Y-40466666D01*
X240619047Y-40609523D01*
X240523809Y-40704761D01*
X240380952Y-40752380D01*
X240285714Y-40752380D01*
X241666666Y-40752380D02*
X241095238Y-40752380D01*
X241380952Y-40752380D02*
X241380952Y-39752380D01*
X241285714Y-39895238D01*
X241190476Y-39990476D01*
X241095238Y-40038095D01*
%TO.C,Q1*%
X203047619Y-141157738D02*
X203000000Y-141252976D01*
X202904761Y-141348214D01*
X202761904Y-141491071D01*
X202714285Y-141586309D01*
X202714285Y-141681547D01*
X202952380Y-141633928D02*
X202904761Y-141729166D01*
X202809523Y-141824404D01*
X202619047Y-141872023D01*
X202285714Y-141872023D01*
X202095238Y-141824404D01*
X202000000Y-141729166D01*
X201952380Y-141633928D01*
X201952380Y-141443452D01*
X202000000Y-141348214D01*
X202095238Y-141252976D01*
X202285714Y-141205357D01*
X202619047Y-141205357D01*
X202809523Y-141252976D01*
X202904761Y-141348214D01*
X202952380Y-141443452D01*
X202952380Y-141633928D01*
X202952380Y-140252976D02*
X202952380Y-140824404D01*
X202952380Y-140538690D02*
X201952380Y-140538690D01*
X202095238Y-140633928D01*
X202190476Y-140729166D01*
X202238095Y-140824404D01*
%TO.C,M1*%
X75190476Y-158122380D02*
X75190476Y-157122380D01*
X75523809Y-157836666D01*
X75857142Y-157122380D01*
X75857142Y-158122380D01*
X76857142Y-158122380D02*
X76285714Y-158122380D01*
X76571428Y-158122380D02*
X76571428Y-157122380D01*
X76476190Y-157265238D01*
X76380952Y-157360476D01*
X76285714Y-157408095D01*
%TO.C,SW21*%
X304404761Y-103809523D02*
X304452380Y-103666666D01*
X304452380Y-103428571D01*
X304404761Y-103333333D01*
X304357142Y-103285714D01*
X304261904Y-103238095D01*
X304166666Y-103238095D01*
X304071428Y-103285714D01*
X304023809Y-103333333D01*
X303976190Y-103428571D01*
X303928571Y-103619047D01*
X303880952Y-103714285D01*
X303833333Y-103761904D01*
X303738095Y-103809523D01*
X303642857Y-103809523D01*
X303547619Y-103761904D01*
X303500000Y-103714285D01*
X303452380Y-103619047D01*
X303452380Y-103380952D01*
X303500000Y-103238095D01*
X303452380Y-102904761D02*
X304452380Y-102666666D01*
X303738095Y-102476190D01*
X304452380Y-102285714D01*
X303452380Y-102047619D01*
X303547619Y-101714285D02*
X303500000Y-101666666D01*
X303452380Y-101571428D01*
X303452380Y-101333333D01*
X303500000Y-101238095D01*
X303547619Y-101190476D01*
X303642857Y-101142857D01*
X303738095Y-101142857D01*
X303880952Y-101190476D01*
X304452380Y-101761904D01*
X304452380Y-101142857D01*
X304452380Y-100190476D02*
X304452380Y-100761904D01*
X304452380Y-100476190D02*
X303452380Y-100476190D01*
X303595238Y-100571428D01*
X303690476Y-100666666D01*
X303738095Y-100761904D01*
D12*
%TO.C,C1*%
X199884165Y-150640000D02*
X200115835Y-150640000D01*
X199884165Y-151360000D02*
X200115835Y-151360000D01*
%TO.C,M2*%
X322670000Y-158670000D02*
X324000000Y-158670000D01*
X325330000Y-161270000D02*
X325330000Y-163870000D01*
X322670000Y-161270000D02*
X322670000Y-163870000D01*
X322670000Y-161270000D02*
X325330000Y-161270000D01*
X322670000Y-163870000D02*
X325330000Y-163870000D01*
X322670000Y-160000000D02*
X322670000Y-158670000D01*
%TO.C,U1*%
X287510000Y-109510000D02*
X287910000Y-109510000D01*
X290110000Y-109510000D02*
X290510000Y-109510000D01*
X257010000Y-130510000D02*
X257410000Y-130510000D01*
X300510000Y-109510000D02*
X300510000Y-116310000D01*
X254510000Y-130510000D02*
X254910000Y-130510000D01*
X267210000Y-109510000D02*
X267610000Y-109510000D01*
X263500000Y-125250000D02*
X263500000Y-121850000D01*
X300510000Y-121510000D02*
X300510000Y-121110000D01*
X272310000Y-109510000D02*
X272710000Y-109510000D01*
X292610000Y-130510000D02*
X293010000Y-130510000D01*
X263500000Y-121850000D02*
X263250000Y-121850000D01*
X282410000Y-130510000D02*
X282810000Y-130510000D01*
X259250000Y-121850000D02*
X259250000Y-125250000D01*
X269710000Y-109510000D02*
X270110000Y-109510000D01*
X264610000Y-130510000D02*
X265010000Y-130510000D01*
X285010000Y-109510000D02*
X285410000Y-109510000D01*
X259250000Y-125250000D02*
X263500000Y-125250000D01*
X252177000Y-127503000D02*
X249510000Y-127503000D01*
X249510000Y-109510000D02*
X249810000Y-109510000D01*
X285010000Y-130510000D02*
X285410000Y-130510000D01*
X300510000Y-118910000D02*
X300510000Y-118510000D01*
X277310000Y-130510000D02*
X277710000Y-130510000D01*
X249510000Y-130510000D02*
X249510000Y-109510000D01*
X251910000Y-109510000D02*
X252310000Y-109510000D01*
X259250000Y-121850000D02*
X261650000Y-121850000D01*
X262110000Y-109510000D02*
X262510000Y-109510000D01*
X257010000Y-109510000D02*
X257410000Y-109510000D01*
X267210000Y-130510000D02*
X267610000Y-130510000D01*
X279910000Y-130510000D02*
X280310000Y-130510000D01*
X264610000Y-109510000D02*
X265010000Y-109510000D01*
X300510000Y-123710000D02*
X300510000Y-130510000D01*
X297710000Y-109510000D02*
X298110000Y-109510000D01*
X259610000Y-130510000D02*
X260010000Y-130510000D01*
X274810000Y-130510000D02*
X275210000Y-130510000D01*
X297710000Y-130510000D02*
X298110000Y-130510000D01*
X287510000Y-130510000D02*
X287910000Y-130510000D01*
X290110000Y-130510000D02*
X290510000Y-130510000D01*
X269710000Y-130510000D02*
X270110000Y-130510000D01*
X252177000Y-130510000D02*
X252177000Y-127503000D01*
X295110000Y-109510000D02*
X295510000Y-109510000D01*
X274810000Y-109510000D02*
X275210000Y-109510000D01*
X295110000Y-130510000D02*
X295510000Y-130510000D01*
X259610000Y-109510000D02*
X260010000Y-109510000D01*
X279910000Y-109510000D02*
X280310000Y-109510000D01*
X277310000Y-109510000D02*
X277710000Y-109510000D01*
X262110000Y-130510000D02*
X262510000Y-130510000D01*
X254510000Y-109510000D02*
X254910000Y-109510000D01*
X282410000Y-109510000D02*
X282810000Y-109510000D01*
X251910000Y-130510000D02*
X252310000Y-130510000D01*
X292610000Y-109510000D02*
X293010000Y-109510000D01*
X249510000Y-130510000D02*
X249810000Y-130510000D01*
X272310000Y-130510000D02*
X272710000Y-130510000D01*
X261450000Y-122150000D02*
G75*
G03*
X262850000Y-123550000I0J-1400000D01*
G01*
%TO.C,D2*%
X197750000Y-145000000D02*
X197750000Y-147000000D01*
X197750000Y-147000000D02*
X201650000Y-147000000D01*
X197750000Y-145000000D02*
X201650000Y-145000000D01*
%TO.C,R1*%
X206254724Y-137477500D02*
X205745276Y-137477500D01*
X206254724Y-138522500D02*
X205745276Y-138522500D01*
%TO.C,J1*%
X247200000Y-38500000D02*
X247200000Y-36300000D01*
D11*
X227000000Y-47300000D02*
X255000000Y-47300000D01*
D12*
X234800000Y-38500000D02*
X247200000Y-38500000D01*
X234800000Y-36300000D02*
X234800000Y-38500000D01*
X255000000Y-47300001D02*
G75*
G03*
X258086975Y-36155042I-1902J6000528D01*
G01*
X223913025Y-36155043D02*
G75*
G03*
X227000000Y-47300000I3086975J-5144957D01*
G01*
%TO.C,G\u002A\u002A\u002A*%
G36*
X326899958Y-132149659D02*
G01*
X325983035Y-131247619D01*
X324797833Y-129889809D01*
X323758147Y-128451085D01*
X322863309Y-126930098D01*
X322112649Y-125325497D01*
X321505500Y-123635930D01*
X321395547Y-123215382D01*
X323122368Y-123215382D01*
X323148358Y-123304508D01*
X323217957Y-123513697D01*
X323318610Y-123805627D01*
X323374192Y-123963972D01*
X323971718Y-125416584D01*
X324729644Y-126847299D01*
X325641576Y-128244395D01*
X325905282Y-128603570D01*
X326109651Y-128859486D01*
X326381298Y-129176636D01*
X326700597Y-129534464D01*
X327047923Y-129912417D01*
X327403653Y-130289939D01*
X327748161Y-130646476D01*
X328061823Y-130961473D01*
X328325014Y-131214375D01*
X328518109Y-131384628D01*
X328621483Y-131451676D01*
X328624810Y-131451974D01*
X328706654Y-131395515D01*
X328877232Y-131242525D01*
X329110139Y-131017582D01*
X329332550Y-130793148D01*
X329973684Y-130134322D01*
X329973684Y-123928503D01*
X329628832Y-123554383D01*
X329283981Y-123180263D01*
X326203175Y-123180263D01*
X325504321Y-123181181D01*
X324861023Y-123183793D01*
X324291703Y-123187890D01*
X323814781Y-123193262D01*
X323448680Y-123199699D01*
X323211820Y-123206991D01*
X323122624Y-123214928D01*
X323122368Y-123215382D01*
X321395547Y-123215382D01*
X321041193Y-121860046D01*
X320852660Y-120882566D01*
X320788067Y-120474978D01*
X320739972Y-120092251D01*
X320706141Y-119698050D01*
X320684340Y-119256039D01*
X320672334Y-118729881D01*
X320668189Y-118126928D01*
X322308541Y-118126928D01*
X322341475Y-119126752D01*
X322421177Y-120054749D01*
X322508008Y-120652796D01*
X322556097Y-120924342D01*
X329113918Y-120924342D01*
X329973684Y-120015266D01*
X329973684Y-105944249D01*
X329231268Y-105189736D01*
X328488852Y-104435222D01*
X328039169Y-104819398D01*
X327787105Y-105049790D01*
X327473409Y-105358280D01*
X327146099Y-105696870D01*
X326958787Y-105899320D01*
X325838754Y-107253998D01*
X324869529Y-108680141D01*
X324051779Y-110176358D01*
X323386172Y-111741257D01*
X322873375Y-113373445D01*
X322514058Y-115071529D01*
X322491866Y-115210803D01*
X322383584Y-116117522D01*
X322322526Y-117106708D01*
X322308541Y-118126928D01*
X320668189Y-118126928D01*
X320667889Y-118083241D01*
X320667694Y-117874671D01*
X320679032Y-116917104D01*
X320716861Y-116078935D01*
X320786904Y-115313755D01*
X320894883Y-114575152D01*
X321046520Y-113816715D01*
X321247539Y-112992034D01*
X321289299Y-112833387D01*
X321818217Y-111162947D01*
X322495766Y-109557659D01*
X323313320Y-108026146D01*
X324262255Y-106577034D01*
X325333947Y-105218946D01*
X326519770Y-103960508D01*
X327811102Y-102810343D01*
X329199317Y-101777076D01*
X330675792Y-100869331D01*
X332231901Y-100095732D01*
X333859020Y-99464905D01*
X335000492Y-99122193D01*
X335841981Y-98911703D01*
X336608893Y-98751621D01*
X337347638Y-98636225D01*
X338104629Y-98559793D01*
X338926275Y-98516602D01*
X339858987Y-98500929D01*
X340041776Y-98500589D01*
X340999344Y-98511927D01*
X341837512Y-98549756D01*
X342602693Y-98619799D01*
X343341296Y-98727777D01*
X344099732Y-98879415D01*
X344924413Y-99080434D01*
X345083060Y-99122193D01*
X346754097Y-99651264D01*
X348359817Y-100328919D01*
X349891618Y-101146553D01*
X351340894Y-102095562D01*
X352699042Y-103167342D01*
X353957458Y-104353289D01*
X355107536Y-105644798D01*
X356140674Y-107033266D01*
X357048267Y-108510089D01*
X357821711Y-110066661D01*
X358452402Y-111694379D01*
X358794254Y-112833387D01*
X359004745Y-113674876D01*
X359164827Y-114441787D01*
X359280222Y-115180533D01*
X359356654Y-115937524D01*
X359399845Y-116759170D01*
X359415518Y-117691882D01*
X359415858Y-117874671D01*
X359413137Y-118561747D01*
X359403483Y-119118121D01*
X359384663Y-119580127D01*
X359354442Y-119984103D01*
X359310585Y-120366384D01*
X359250858Y-120763306D01*
X359230893Y-120882566D01*
X358842653Y-122703888D01*
X358312852Y-124436853D01*
X357640507Y-126083445D01*
X356824635Y-127645651D01*
X355864254Y-129125455D01*
X354758380Y-130524845D01*
X354100518Y-131247619D01*
X352782867Y-132510518D01*
X351378518Y-133630828D01*
X349890318Y-134607048D01*
X348321114Y-135437676D01*
X346673751Y-136121213D01*
X344951077Y-136656158D01*
X343155938Y-137041010D01*
X343091447Y-137051806D01*
X342539228Y-137125415D01*
X341873872Y-137185683D01*
X341139121Y-137231121D01*
X340378721Y-137260235D01*
X339636415Y-137271535D01*
X338955948Y-137263529D01*
X338381063Y-137234725D01*
X338203619Y-137218470D01*
X336373847Y-136942330D01*
X334608780Y-136513468D01*
X332912586Y-135933923D01*
X331289436Y-135205731D01*
X329743501Y-134330932D01*
X328407593Y-133401100D01*
X336156579Y-133401100D01*
X337213494Y-134469279D01*
X337604423Y-134860568D01*
X337901373Y-135146548D01*
X338124740Y-135343743D01*
X338294914Y-135468676D01*
X338432289Y-135537874D01*
X338557258Y-135567860D01*
X338571225Y-135569486D01*
X339031502Y-135600998D01*
X339607624Y-135614035D01*
X340249459Y-135609531D01*
X340906879Y-135588420D01*
X341529752Y-135551636D01*
X342026130Y-135505113D01*
X343756047Y-135223144D01*
X345413704Y-134790522D01*
X346998633Y-134207473D01*
X348510367Y-133474223D01*
X349948441Y-132590997D01*
X351312388Y-131558020D01*
X352572214Y-130405108D01*
X353670152Y-129219714D01*
X354617312Y-128003473D01*
X355429963Y-126730051D01*
X356124371Y-125373114D01*
X356716804Y-123906330D01*
X356880402Y-123430921D01*
X357345987Y-121765651D01*
X357645630Y-120082241D01*
X357779215Y-118383206D01*
X357746625Y-116671061D01*
X357547741Y-114948322D01*
X357328856Y-113822369D01*
X357268535Y-113567607D01*
X357205984Y-113370528D01*
X357119519Y-113197831D01*
X356987454Y-113016215D01*
X356788106Y-112792380D01*
X356499790Y-112493026D01*
X356390328Y-112381086D01*
X355593063Y-111566447D01*
X348086282Y-111566447D01*
X346766777Y-111566119D01*
X345604380Y-111565030D01*
X344589097Y-111563026D01*
X343710931Y-111559954D01*
X342959886Y-111555658D01*
X342325968Y-111549985D01*
X341799181Y-111542781D01*
X341369529Y-111533890D01*
X341027016Y-111523160D01*
X340761648Y-111510435D01*
X340563427Y-111495561D01*
X340422360Y-111478384D01*
X340328450Y-111458750D01*
X340291580Y-111446146D01*
X339983929Y-111234203D01*
X339775208Y-110921152D01*
X339677101Y-110548406D01*
X339701288Y-110157378D01*
X339835037Y-109827703D01*
X339888220Y-109738426D01*
X339939054Y-109660050D01*
X339998156Y-109591865D01*
X340076146Y-109533164D01*
X340183641Y-109483236D01*
X340331259Y-109441375D01*
X340529620Y-109406869D01*
X340789340Y-109379012D01*
X341121038Y-109357095D01*
X341535333Y-109340408D01*
X342042843Y-109328243D01*
X342654186Y-109319891D01*
X343379979Y-109314644D01*
X344230842Y-109311792D01*
X345217393Y-109310628D01*
X346350249Y-109310442D01*
X347583649Y-109310526D01*
X354587797Y-109310526D01*
X354907874Y-108982738D01*
X355227951Y-108654949D01*
X354824282Y-108047745D01*
X353949652Y-106859073D01*
X352939878Y-105709539D01*
X351826697Y-104629647D01*
X350641845Y-103649897D01*
X349417060Y-102800792D01*
X349270504Y-102710102D01*
X348207987Y-102120999D01*
X347037870Y-101577818D01*
X345818070Y-101103799D01*
X344606503Y-100722183D01*
X343847395Y-100533942D01*
X343055532Y-100386625D01*
X342169318Y-100264441D01*
X341260600Y-100175131D01*
X340401224Y-100126438D01*
X340003160Y-100119737D01*
X339044440Y-100119737D01*
X337600510Y-101563668D01*
X336156579Y-103007598D01*
X336156579Y-118945370D01*
X337133878Y-119934856D01*
X338111176Y-120924342D01*
X345535066Y-120924342D01*
X346845173Y-120924198D01*
X347998592Y-120924187D01*
X349005742Y-120924945D01*
X349877041Y-120927106D01*
X350622905Y-120931306D01*
X351253754Y-120938177D01*
X351780003Y-120948356D01*
X352212072Y-120962477D01*
X352560377Y-120981174D01*
X352835337Y-121005082D01*
X353047369Y-121034835D01*
X353206890Y-121071069D01*
X353324318Y-121114418D01*
X353410072Y-121165517D01*
X353474568Y-121224999D01*
X353528224Y-121293500D01*
X353581458Y-121371655D01*
X353612492Y-121416407D01*
X353753245Y-121741626D01*
X353786921Y-122124433D01*
X353713519Y-122494125D01*
X353612492Y-122688198D01*
X353555692Y-122771214D01*
X353503945Y-122844349D01*
X353446893Y-122908228D01*
X353374182Y-122963476D01*
X353275455Y-123010716D01*
X353140355Y-123050574D01*
X352958527Y-123083674D01*
X352719614Y-123110640D01*
X352413260Y-123132097D01*
X352029110Y-123148668D01*
X351556806Y-123160979D01*
X350985993Y-123169653D01*
X350306315Y-123175316D01*
X349507415Y-123178591D01*
X348578937Y-123180103D01*
X347510525Y-123180476D01*
X346291824Y-123180335D01*
X345451145Y-123180263D01*
X337943333Y-123180263D01*
X337049956Y-124086856D01*
X336156579Y-124993448D01*
X336156579Y-133401100D01*
X328407593Y-133401100D01*
X328278952Y-133311562D01*
X326899958Y-132149659D01*
G37*
%TO.C,Q1*%
X201580000Y-141822500D02*
X201580000Y-138662500D01*
X198420000Y-141822500D02*
X198420000Y-140362500D01*
X201580000Y-141822500D02*
X200650000Y-141822500D01*
X198420000Y-141822500D02*
X199350000Y-141822500D01*
%TO.C,M1*%
X74670000Y-161270000D02*
X77330000Y-161270000D01*
X77330000Y-161270000D02*
X77330000Y-163870000D01*
X74670000Y-158670000D02*
X76000000Y-158670000D01*
X74670000Y-160000000D02*
X74670000Y-158670000D01*
X74670000Y-163870000D02*
X77330000Y-163870000D01*
X74670000Y-161270000D02*
X74670000Y-163870000D01*
%TO.C,SW21*%
X308330000Y-104330000D02*
X307000000Y-104330000D01*
X305670000Y-101730000D02*
X305670000Y-99130000D01*
X308330000Y-103000000D02*
X308330000Y-104330000D01*
X308330000Y-101730000D02*
X305670000Y-101730000D01*
X308330000Y-101730000D02*
X308330000Y-99130000D01*
X308330000Y-99130000D02*
X305670000Y-99130000D01*
D10*
%TO.C,SW2*%
X253100000Y-159700000D02*
X253100000Y-158950000D01*
X263400000Y-161600000D02*
X262150000Y-161600000D01*
X253350000Y-158950000D02*
X253350000Y-156100000D01*
X255883682Y-156121471D02*
X256383682Y-156121471D01*
X258600000Y-158000000D02*
X263400000Y-158000000D01*
X253350000Y-156100000D02*
X254350000Y-156100000D01*
X260900000Y-161600000D02*
X255199999Y-161600000D01*
X263400000Y-158000000D02*
X263400000Y-161600000D01*
X253100000Y-158950000D02*
X253350000Y-158950000D01*
X256383682Y-156121471D02*
G75*
G03*
X258600000Y-158000000I2151317J291470D01*
G01*
X253100001Y-159699999D02*
G75*
G03*
X255199999Y-161600000I1999998J99997D01*
G01*
%TO.C,SW20*%
X112350000Y-145950000D02*
X112350000Y-143100000D01*
X122400000Y-148600000D02*
X121150000Y-148600000D01*
X112350000Y-143100000D02*
X113350000Y-143100000D01*
X119900000Y-148600000D02*
X114199999Y-148600000D01*
X112100000Y-146700000D02*
X112100000Y-145950000D01*
X122400000Y-145000000D02*
X122400000Y-148600000D01*
X112100000Y-145950000D02*
X112350000Y-145950000D01*
X117600000Y-145000000D02*
X122400000Y-145000000D01*
X114883682Y-143121471D02*
X115383682Y-143121471D01*
X112100001Y-146699999D02*
G75*
G03*
X114199999Y-148600000I1999998J99997D01*
G01*
X115383682Y-143121471D02*
G75*
G03*
X117600000Y-145000000I2151317J291470D01*
G01*
%TO.C,SW18*%
X142900000Y-135600000D02*
X137199999Y-135600000D01*
X135100000Y-132950000D02*
X135350000Y-132950000D01*
X137883682Y-130121471D02*
X138383682Y-130121471D01*
X145400000Y-132000000D02*
X145400000Y-135600000D01*
X140600000Y-132000000D02*
X145400000Y-132000000D01*
X135350000Y-130100000D02*
X136350000Y-130100000D01*
X135350000Y-132950000D02*
X135350000Y-130100000D01*
X145400000Y-135600000D02*
X144150000Y-135600000D01*
X135100000Y-133700000D02*
X135100000Y-132950000D01*
X138383682Y-130121471D02*
G75*
G03*
X140600000Y-132000000I2151317J291470D01*
G01*
X135100001Y-133699999D02*
G75*
G03*
X137199999Y-135600000I1999998J99997D01*
G01*
%TO.C,SW10*%
X286400000Y-91600000D02*
X285150000Y-91600000D01*
X276350000Y-86100000D02*
X277350000Y-86100000D01*
X276100000Y-89700000D02*
X276100000Y-88950000D01*
X281600000Y-88000000D02*
X286400000Y-88000000D01*
X278883682Y-86121471D02*
X279383682Y-86121471D01*
X276100000Y-88950000D02*
X276350000Y-88950000D01*
X286400000Y-88000000D02*
X286400000Y-91600000D01*
X276350000Y-88950000D02*
X276350000Y-86100000D01*
X283900000Y-91600000D02*
X278199999Y-91600000D01*
X279383682Y-86121471D02*
G75*
G03*
X281600000Y-88000000I2151317J291470D01*
G01*
X276100001Y-89699999D02*
G75*
G03*
X278199999Y-91600000I1999998J99997D01*
G01*
%TO.C,SW3*%
X336600000Y-78000000D02*
X341400000Y-78000000D01*
X331350000Y-76100000D02*
X332350000Y-76100000D01*
X341400000Y-81600000D02*
X340150000Y-81600000D01*
X338900000Y-81600000D02*
X333199999Y-81600000D01*
X333883682Y-76121471D02*
X334383682Y-76121471D01*
X341400000Y-78000000D02*
X341400000Y-81600000D01*
X331100000Y-78950000D02*
X331350000Y-78950000D01*
X331100000Y-79700000D02*
X331100000Y-78950000D01*
X331350000Y-78950000D02*
X331350000Y-76100000D01*
X334383682Y-76121471D02*
G75*
G03*
X336600000Y-78000000I2151317J291470D01*
G01*
X331100001Y-79699999D02*
G75*
G03*
X333199999Y-81600000I1999998J99997D01*
G01*
%TO.C,SW15*%
X57350000Y-52100000D02*
X58350000Y-52100000D01*
X57100000Y-55700000D02*
X57100000Y-54950000D01*
X59883682Y-52121471D02*
X60383682Y-52121471D01*
X64900000Y-57600000D02*
X59199999Y-57600000D01*
X67400000Y-57600000D02*
X66150000Y-57600000D01*
X62600000Y-54000000D02*
X67400000Y-54000000D01*
X67400000Y-54000000D02*
X67400000Y-57600000D01*
X57100000Y-54950000D02*
X57350000Y-54950000D01*
X57350000Y-54950000D02*
X57350000Y-52100000D01*
X60383682Y-52121471D02*
G75*
G03*
X62600000Y-54000000I2151317J291470D01*
G01*
X57100001Y-55699999D02*
G75*
G03*
X59199999Y-57600000I1999998J99997D01*
G01*
%TO.C,SW4*%
X112100000Y-65700000D02*
X112100000Y-64950000D01*
X112350000Y-62100000D02*
X113350000Y-62100000D01*
X112100000Y-64950000D02*
X112350000Y-64950000D01*
X117600000Y-64000000D02*
X122400000Y-64000000D01*
X122400000Y-64000000D02*
X122400000Y-67600000D01*
X112350000Y-64950000D02*
X112350000Y-62100000D01*
X122400000Y-67600000D02*
X121150000Y-67600000D01*
X119900000Y-67600000D02*
X114199999Y-67600000D01*
X114883682Y-62121471D02*
X115383682Y-62121471D01*
X115383682Y-62121471D02*
G75*
G03*
X117600000Y-64000000I2151317J291470D01*
G01*
X112100001Y-65699999D02*
G75*
G03*
X114199999Y-67600000I1999998J99997D01*
G01*
%TO.C,SW19*%
X145400000Y-161600000D02*
X144150000Y-161600000D01*
X137883682Y-156121471D02*
X138383682Y-156121471D01*
X140600000Y-158000000D02*
X145400000Y-158000000D01*
X135350000Y-158950000D02*
X135350000Y-156100000D01*
X145400000Y-158000000D02*
X145400000Y-161600000D01*
X135100000Y-158950000D02*
X135350000Y-158950000D01*
X142900000Y-161600000D02*
X137199999Y-161600000D01*
X135350000Y-156100000D02*
X136350000Y-156100000D01*
X135100000Y-159700000D02*
X135100000Y-158950000D01*
X135100001Y-159699999D02*
G75*
G03*
X137199999Y-161600000I1999998J99997D01*
G01*
X138383682Y-156121471D02*
G75*
G03*
X140600000Y-158000000I2151317J291470D01*
G01*
%TO.C,SW5*%
X114883682Y-86121471D02*
X115383682Y-86121471D01*
X119900000Y-91600000D02*
X114199999Y-91600000D01*
X112350000Y-86100000D02*
X113350000Y-86100000D01*
X112100000Y-89700000D02*
X112100000Y-88950000D01*
X122400000Y-91600000D02*
X121150000Y-91600000D01*
X112100000Y-88950000D02*
X112350000Y-88950000D01*
X122400000Y-88000000D02*
X122400000Y-91600000D01*
X112350000Y-88950000D02*
X112350000Y-86100000D01*
X117600000Y-88000000D02*
X122400000Y-88000000D01*
X112100001Y-89699999D02*
G75*
G03*
X114199999Y-91600000I1999998J99997D01*
G01*
X115383682Y-86121471D02*
G75*
G03*
X117600000Y-88000000I2151317J291470D01*
G01*
%TO.C,SW11*%
X59883682Y-76121471D02*
X60383682Y-76121471D01*
X57100000Y-78950000D02*
X57350000Y-78950000D01*
X67400000Y-78000000D02*
X67400000Y-81600000D01*
X57350000Y-78950000D02*
X57350000Y-76100000D01*
X57100000Y-79700000D02*
X57100000Y-78950000D01*
X67400000Y-81600000D02*
X66150000Y-81600000D01*
X64900000Y-81600000D02*
X59199999Y-81600000D01*
X62600000Y-78000000D02*
X67400000Y-78000000D01*
X57350000Y-76100000D02*
X58350000Y-76100000D01*
X60383682Y-76121471D02*
G75*
G03*
X62600000Y-78000000I2151317J291470D01*
G01*
X57100001Y-79699999D02*
G75*
G03*
X59199999Y-81600000I1999998J99997D01*
G01*
%TO.C,SW1*%
X356350000Y-94950000D02*
X356350000Y-92100000D01*
X356350000Y-92100000D02*
X357350000Y-92100000D01*
X361600000Y-94000000D02*
X366400000Y-94000000D01*
X366400000Y-97600000D02*
X365150000Y-97600000D01*
X366400000Y-94000000D02*
X366400000Y-97600000D01*
X356100000Y-95700000D02*
X356100000Y-94950000D01*
X363900000Y-97600000D02*
X358199999Y-97600000D01*
X358883682Y-92121471D02*
X359383682Y-92121471D01*
X356100000Y-94950000D02*
X356350000Y-94950000D01*
X359383682Y-92121471D02*
G75*
G03*
X361600000Y-94000000I2151317J291470D01*
G01*
X356100001Y-95699999D02*
G75*
G03*
X358199999Y-97600000I1999998J99997D01*
G01*
%TO.C,SW13*%
X42400000Y-73600000D02*
X41150000Y-73600000D01*
X37600000Y-70000000D02*
X42400000Y-70000000D01*
X42400000Y-70000000D02*
X42400000Y-73600000D01*
X32350000Y-68100000D02*
X33350000Y-68100000D01*
X32100000Y-71700000D02*
X32100000Y-70950000D01*
X32100000Y-70950000D02*
X32350000Y-70950000D01*
X39900000Y-73600000D02*
X34199999Y-73600000D01*
X32350000Y-70950000D02*
X32350000Y-68100000D01*
X34883682Y-68121471D02*
X35383682Y-68121471D01*
X35383682Y-68121471D02*
G75*
G03*
X37600000Y-70000000I2151317J291470D01*
G01*
X32100001Y-71699999D02*
G75*
G03*
X34199999Y-73600000I1999998J99997D01*
G01*
%TO.C,SW12*%
X194100000Y-89700000D02*
X194100000Y-88950000D01*
X194350000Y-88950000D02*
X194350000Y-86100000D01*
X199600000Y-88000000D02*
X204400000Y-88000000D01*
X194100000Y-88950000D02*
X194350000Y-88950000D01*
X201900000Y-91600000D02*
X196199999Y-91600000D01*
X196883682Y-86121471D02*
X197383682Y-86121471D01*
X204400000Y-91600000D02*
X203150000Y-91600000D01*
X204400000Y-88000000D02*
X204400000Y-91600000D01*
X194350000Y-86100000D02*
X195350000Y-86100000D01*
X197383682Y-86121471D02*
G75*
G03*
X199600000Y-88000000I2151317J291470D01*
G01*
X194100001Y-89699999D02*
G75*
G03*
X196199999Y-91600000I1999998J99997D01*
G01*
%TO.C,SW9*%
X92900000Y-78600000D02*
X87199999Y-78600000D01*
X85350000Y-73100000D02*
X86350000Y-73100000D01*
X85100000Y-75950000D02*
X85350000Y-75950000D01*
X87883682Y-73121471D02*
X88383682Y-73121471D01*
X95400000Y-78600000D02*
X94150000Y-78600000D01*
X95400000Y-75000000D02*
X95400000Y-78600000D01*
X85100000Y-76700000D02*
X85100000Y-75950000D01*
X85350000Y-75950000D02*
X85350000Y-73100000D01*
X90600000Y-75000000D02*
X95400000Y-75000000D01*
X85100001Y-76699999D02*
G75*
G03*
X87199999Y-78600000I1999998J99997D01*
G01*
X88383682Y-73121471D02*
G75*
G03*
X90600000Y-75000000I2151317J291470D01*
G01*
%TO.C,SW6*%
X230100000Y-172700000D02*
X230100000Y-171950000D01*
X240400000Y-171000000D02*
X240400000Y-174600000D01*
X232883682Y-169121471D02*
X233383682Y-169121471D01*
X235600000Y-171000000D02*
X240400000Y-171000000D01*
X230100000Y-171950000D02*
X230350000Y-171950000D01*
X237900000Y-174600000D02*
X232199999Y-174600000D01*
X230350000Y-171950000D02*
X230350000Y-169100000D01*
X230350000Y-169100000D02*
X231350000Y-169100000D01*
X240400000Y-174600000D02*
X239150000Y-174600000D01*
X233383682Y-169121471D02*
G75*
G03*
X235600000Y-171000000I2151317J291470D01*
G01*
X230100001Y-172699999D02*
G75*
G03*
X232199999Y-174600000I1999998J99997D01*
G01*
%TO.C,SW17*%
X168400000Y-171000000D02*
X168400000Y-174600000D01*
X163600000Y-171000000D02*
X168400000Y-171000000D01*
X168400000Y-174600000D02*
X167150000Y-174600000D01*
X158100000Y-172700000D02*
X158100000Y-171950000D01*
X165900000Y-174600000D02*
X160199999Y-174600000D01*
X160883682Y-169121471D02*
X161383682Y-169121471D01*
X158350000Y-169100000D02*
X159350000Y-169100000D01*
X158350000Y-171950000D02*
X158350000Y-169100000D01*
X158100000Y-171950000D02*
X158350000Y-171950000D01*
X158100001Y-172699999D02*
G75*
G03*
X160199999Y-174600000I1999998J99997D01*
G01*
X161383682Y-169121471D02*
G75*
G03*
X163600000Y-171000000I2151317J291470D01*
G01*
%TO.C,SW8*%
X85100000Y-52700000D02*
X85100000Y-51950000D01*
X85350000Y-51950000D02*
X85350000Y-49100000D01*
X85350000Y-49100000D02*
X86350000Y-49100000D01*
X85100000Y-51950000D02*
X85350000Y-51950000D01*
X87883682Y-49121471D02*
X88383682Y-49121471D01*
X95400000Y-54600000D02*
X94150000Y-54600000D01*
X92900000Y-54600000D02*
X87199999Y-54600000D01*
X95400000Y-51000000D02*
X95400000Y-54600000D01*
X90600000Y-51000000D02*
X95400000Y-51000000D01*
X85100001Y-52699999D02*
G75*
G03*
X87199999Y-54600000I1999998J99997D01*
G01*
X88383682Y-49121471D02*
G75*
G03*
X90600000Y-51000000I2151317J291470D01*
G01*
%TO.C,SW16*%
X168400000Y-148600000D02*
X167150000Y-148600000D01*
X158350000Y-145950000D02*
X158350000Y-143100000D01*
X158100000Y-146700000D02*
X158100000Y-145950000D01*
X160883682Y-143121471D02*
X161383682Y-143121471D01*
X165900000Y-148600000D02*
X160199999Y-148600000D01*
X163600000Y-145000000D02*
X168400000Y-145000000D01*
X158350000Y-143100000D02*
X159350000Y-143100000D01*
X168400000Y-145000000D02*
X168400000Y-148600000D01*
X158100000Y-145950000D02*
X158350000Y-145950000D01*
X158100001Y-146699999D02*
G75*
G03*
X160199999Y-148600000I1999998J99997D01*
G01*
X161383682Y-143121471D02*
G75*
G03*
X163600000Y-145000000I2151317J291470D01*
G01*
%TO.C,SW7*%
X310900000Y-78600000D02*
X305199999Y-78600000D01*
X303350000Y-75950000D02*
X303350000Y-73100000D01*
X313400000Y-78600000D02*
X312150000Y-78600000D01*
X303100000Y-76700000D02*
X303100000Y-75950000D01*
X308600000Y-75000000D02*
X313400000Y-75000000D01*
X313400000Y-75000000D02*
X313400000Y-78600000D01*
X303100000Y-75950000D02*
X303350000Y-75950000D01*
X303350000Y-73100000D02*
X304350000Y-73100000D01*
X305883682Y-73121471D02*
X306383682Y-73121471D01*
X303100001Y-76699999D02*
G75*
G03*
X305199999Y-78600000I1999998J99997D01*
G01*
X306383682Y-73121471D02*
G75*
G03*
X308600000Y-75000000I2151317J291470D01*
G01*
%TO.C,SW14*%
X32350000Y-92100000D02*
X33350000Y-92100000D01*
X32100000Y-94950000D02*
X32350000Y-94950000D01*
X32100000Y-95700000D02*
X32100000Y-94950000D01*
X32350000Y-94950000D02*
X32350000Y-92100000D01*
X42400000Y-97600000D02*
X41150000Y-97600000D01*
X39900000Y-97600000D02*
X34199999Y-97600000D01*
X34883682Y-92121471D02*
X35383682Y-92121471D01*
X42400000Y-94000000D02*
X42400000Y-97600000D01*
X37600000Y-94000000D02*
X42400000Y-94000000D01*
X35383682Y-92121471D02*
G75*
G03*
X37600000Y-94000000I2151317J291470D01*
G01*
X32100001Y-95699999D02*
G75*
G03*
X34199999Y-97600000I1999998J99997D01*
G01*
%TD*%
M02*
