M48
; DRILL file {KiCad (6.0.0)} date Sun Sep 18 23:58:12 2022
; FORMAT={-:-/ absolute / metric / decimal}
; #@! TF.CreationDate,2022-09-18T23:58:12-04:00
; #@! TF.GenerationSoftware,Kicad,Pcbnew,(6.0.0)
; #@! TF.FileFunction,MixedPlating,1,2
FMAT,2
METRIC
; #@! TA.AperFunction,Plated,PTH,ViaDrill
T1C0.400
; #@! TA.AperFunction,Plated,PTH,ComponentDrill
T2C0.762
; #@! TA.AperFunction,Plated,PTH,ComponentDrill
T3C1.000
; #@! TA.AperFunction,Plated,PTH,ComponentDrill
T4C1.020
; #@! TA.AperFunction,Plated,PTH,ComponentDrill
T5C1.500
; #@! TA.AperFunction,NonPlated,NPTH,ComponentDrill
T6C1.200
; #@! TA.AperFunction,NonPlated,NPTH,ComponentDrill
T7C1.300
; #@! TA.AperFunction,NonPlated,NPTH,ComponentDrill
T8C1.900
; #@! TA.AperFunction,NonPlated,NPTH,ComponentDrill
T9C2.100
; #@! TA.AperFunction,NonPlated,NPTH,ComponentDrill
T10C3.000
; #@! TA.AperFunction,NonPlated,NPTH,ComponentDrill
T11C4.100
; #@! TA.AperFunction,NonPlated,NPTH,ComponentDrill
T12C4.300
%
G90
G05
T1
X174.0Y-96.5
X195.0Y-139.0
X195.0Y-140.0
X196.0Y-139.0
X196.0Y-140.0
X196.0Y-145.0
X196.0Y-146.0
X196.0Y-163.0
X196.0Y-164.0
X204.0Y-145.0
X204.0Y-146.0
X204.0Y-163.0
X204.0Y-164.0
X231.0Y-39.0
X231.0Y-40.0
X251.0Y-37.0
X251.0Y-38.0
T2
X250.7Y-119.0
X250.7Y-121.0
X254.0Y-120.0
X262.5Y-122.5
T3
X76.0Y-160.0
X76.0Y-162.54
X307.0Y-100.46
X307.0Y-103.0
X324.0Y-160.0
X324.0Y-162.54
T4
X250.87Y-111.11
X250.87Y-128.89
X253.41Y-111.11
X253.41Y-128.89
X255.95Y-111.11
X255.95Y-128.89
X258.49Y-111.11
X258.49Y-128.89
X261.03Y-111.11
X261.03Y-128.89
X263.57Y-111.11
X263.57Y-128.89
X266.11Y-111.11
X266.11Y-128.89
X268.65Y-111.11
X268.65Y-128.89
X271.19Y-111.11
X271.19Y-128.89
X273.73Y-111.11
X273.73Y-128.89
X276.27Y-111.11
X276.27Y-128.89
X278.81Y-111.11
X278.81Y-128.89
X281.35Y-111.11
X281.35Y-128.89
X283.89Y-111.11
X283.89Y-128.89
X286.43Y-111.11
X286.43Y-128.89
X288.97Y-111.11
X288.97Y-128.89
X291.51Y-111.11
X291.51Y-128.89
X294.05Y-111.11
X294.05Y-128.89
X296.59Y-111.11
X296.59Y-128.89
X299.13Y-111.11
X299.13Y-128.89
T5
X35.46Y-61.92
X35.46Y-85.92
X41.81Y-64.46
X41.81Y-88.46
X60.46Y-45.92
X60.46Y-69.92
X66.81Y-48.46
X66.81Y-72.46
X88.46Y-42.92
X88.46Y-66.92
X94.81Y-45.46
X94.81Y-69.46
X115.46Y-55.92
X115.46Y-79.92
X115.46Y-136.92
X121.81Y-58.46
X121.81Y-82.46
X121.81Y-139.46
X138.46Y-123.92
X138.46Y-149.92
X144.81Y-126.46
X144.81Y-152.46
X161.46Y-136.92
X161.46Y-162.92
X167.81Y-139.46
X167.81Y-165.46
X197.46Y-79.92
X203.81Y-82.46
X233.46Y-162.92
X239.81Y-165.46
X256.46Y-149.92
X262.81Y-152.46
X279.46Y-79.92
X285.81Y-82.46
X306.46Y-66.92
X312.81Y-69.46
X334.46Y-69.92
X340.81Y-72.46
X359.46Y-85.92
X365.81Y-88.46
T8
X32.92Y-67.0
X32.92Y-91.0
X43.08Y-67.0
X43.08Y-91.0
X57.92Y-51.0
X57.92Y-75.0
X68.08Y-51.0
X68.08Y-75.0
X85.92Y-48.0
X85.92Y-72.0
X96.08Y-48.0
X96.08Y-72.0
X112.92Y-61.0
X112.92Y-85.0
X112.92Y-142.0
X123.08Y-61.0
X123.08Y-85.0
X123.08Y-142.0
X135.92Y-129.0
X135.92Y-155.0
X146.08Y-129.0
X146.08Y-155.0
X158.92Y-142.0
X158.92Y-168.0
X169.08Y-142.0
X169.08Y-168.0
X194.92Y-85.0
X205.08Y-85.0
X230.92Y-168.0
X241.08Y-168.0
X253.92Y-155.0
X264.08Y-155.0
X276.92Y-85.0
X287.08Y-85.0
X303.92Y-72.0
X314.08Y-72.0
X331.92Y-75.0
X342.08Y-75.0
X356.92Y-91.0
X367.08Y-91.0
T9
X251.5Y-114.3
X251.5Y-125.7
X298.5Y-114.3
X298.5Y-125.7
T10
X34.19Y-69.54
X34.19Y-93.54
X40.54Y-72.08
X40.54Y-96.08
X59.19Y-53.54
X59.19Y-77.54
X65.54Y-56.08
X65.54Y-80.08
X87.19Y-50.54
X87.19Y-74.54
X93.54Y-53.08
X93.54Y-77.08
X114.19Y-63.54
X114.19Y-87.54
X114.19Y-144.54
X120.54Y-66.08
X120.54Y-90.08
X120.54Y-147.08
X137.19Y-131.54
X137.19Y-157.54
X143.54Y-134.08
X143.54Y-160.08
X160.19Y-144.54
X160.19Y-170.54
X166.54Y-147.08
X166.54Y-173.08
X196.19Y-87.54
X202.54Y-90.08
X232.19Y-170.54
X238.54Y-173.08
X255.19Y-157.54
X261.54Y-160.08
X278.19Y-87.54
X284.54Y-90.08
X305.19Y-74.54
X311.54Y-77.08
X333.19Y-77.54
X339.54Y-80.08
X358.19Y-93.54
X364.54Y-96.08
T11
X38.0Y-67.0
X38.0Y-91.0
X63.0Y-51.0
X63.0Y-75.0
X91.0Y-48.0
X91.0Y-72.0
X118.0Y-61.0
X118.0Y-85.0
X118.0Y-142.0
X141.0Y-129.0
X141.0Y-155.0
X164.0Y-142.0
X164.0Y-168.0
X200.0Y-85.0
X236.0Y-168.0
X259.0Y-155.0
X282.0Y-85.0
X309.0Y-72.0
X337.0Y-75.0
X362.0Y-91.0
T12
X77.0Y-95.0
X118.0Y-168.0
X227.0Y-41.3
X255.0Y-41.3
X323.0Y-95.0
T6
G00X253.805Y-117.575
M15
G01X254.255Y-117.575
M16
G05
G00X253.805Y-122.425
M15
G01X254.255Y-122.425
M16
G05
T7
G00X250.65Y-117.275
M15
G01X251.35Y-117.275
M16
G05
G00X250.65Y-122.725
M15
G01X251.35Y-122.725
M16
G05
T0
M30
