%TF.GenerationSoftware,KiCad,Pcbnew,(6.0.0)*%
%TF.CreationDate,2022-09-18T23:58:15-04:00*%
%TF.ProjectId,SergioPico,53657267-696f-4506-9963-6f2e6b696361,rev?*%
%TF.SameCoordinates,Original*%
%TF.FileFunction,Soldermask,Bot*%
%TF.FilePolarity,Negative*%
%FSLAX46Y46*%
G04 Gerber Fmt 4.6, Leading zero omitted, Abs format (unit mm)*
G04 Created by KiCad (PCBNEW (6.0.0)) date 2022-09-18 23:58:15*
%MOMM*%
%LPD*%
G01*
G04 APERTURE LIST*
G04 Aperture macros list*
%AMRoundRect*
0 Rectangle with rounded corners*
0 $1 Rounding radius*
0 $2 $3 $4 $5 $6 $7 $8 $9 X,Y pos of 4 corners*
0 Add a 4 corners polygon primitive as box body*
4,1,4,$2,$3,$4,$5,$6,$7,$8,$9,$2,$3,0*
0 Add four circle primitives for the rounded corners*
1,1,$1+$1,$2,$3*
1,1,$1+$1,$4,$5*
1,1,$1+$1,$6,$7*
1,1,$1+$1,$8,$9*
0 Add four rect primitives between the rounded corners*
20,1,$1+$1,$2,$3,$4,$5,0*
20,1,$1+$1,$4,$5,$6,$7,0*
20,1,$1+$1,$6,$7,$8,$9,0*
20,1,$1+$1,$8,$9,$2,$3,0*%
G04 Aperture macros list end*
%ADD10R,1.700000X1.700000*%
%ADD11O,1.700000X1.700000*%
%ADD12C,2.100000*%
%ADD13O,1.650000X1.200000*%
%ADD14O,2.000000X1.300000*%
%ADD15RoundRect,0.255906X0.394094X-0.394094X0.394094X0.394094X-0.394094X0.394094X-0.394094X-0.394094X0*%
%ADD16C,4.300000*%
%ADD17C,3.000000*%
%ADD18C,4.100000*%
%ADD19C,1.900000*%
%ADD20C,2.200000*%
G04 APERTURE END LIST*
D10*
%TO.C,M2*%
X324000000Y-160000000D03*
D11*
X324000000Y-162540000D03*
%TD*%
D12*
%TO.C,U1*%
X251500000Y-125700000D03*
X298500000Y-114300000D03*
X298500000Y-125700000D03*
D13*
X254030000Y-122425000D03*
X254030000Y-117575000D03*
D14*
X251000000Y-117275000D03*
D12*
X251500000Y-114300000D03*
D14*
X251000000Y-122725000D03*
D11*
X250870000Y-128890000D03*
X253410000Y-128890000D03*
D10*
X255950000Y-128890000D03*
D11*
X258490000Y-128890000D03*
X261030000Y-128890000D03*
X263570000Y-128890000D03*
X266110000Y-128890000D03*
D10*
X268650000Y-128890000D03*
D11*
X271190000Y-128890000D03*
X273730000Y-128890000D03*
X276270000Y-128890000D03*
X278810000Y-128890000D03*
D10*
X281350000Y-128890000D03*
D11*
X283890000Y-128890000D03*
X286430000Y-128890000D03*
X288970000Y-128890000D03*
X291510000Y-128890000D03*
D10*
X294050000Y-128890000D03*
D11*
X296590000Y-128890000D03*
X299130000Y-128890000D03*
X299130000Y-111110000D03*
X296590000Y-111110000D03*
D10*
X294050000Y-111110000D03*
D11*
X291510000Y-111110000D03*
X288970000Y-111110000D03*
X286430000Y-111110000D03*
X283890000Y-111110000D03*
D10*
X281350000Y-111110000D03*
D11*
X278810000Y-111110000D03*
X276270000Y-111110000D03*
X273730000Y-111110000D03*
X271190000Y-111110000D03*
D10*
X268650000Y-111110000D03*
D11*
X266110000Y-111110000D03*
X263570000Y-111110000D03*
X261030000Y-111110000D03*
X258490000Y-111110000D03*
D10*
X255950000Y-111110000D03*
D11*
X253410000Y-111110000D03*
X250870000Y-111110000D03*
D15*
X254000000Y-120000000D03*
X250700000Y-119000000D03*
X250700000Y-121000000D03*
X262500000Y-122500000D03*
%TD*%
D16*
%TO.C,H1*%
X77000000Y-95000000D03*
%TD*%
%TO.C,H2*%
X323000000Y-95000000D03*
%TD*%
%TO.C,J1*%
X227000000Y-41300000D03*
X255000000Y-41300000D03*
%TD*%
%TO.C,H3*%
X118000000Y-168000000D03*
%TD*%
D10*
%TO.C,M1*%
X76000000Y-160000000D03*
D11*
X76000000Y-162540000D03*
%TD*%
D10*
%TO.C,SW21*%
X307000000Y-103000000D03*
D11*
X307000000Y-100460000D03*
%TD*%
D17*
%TO.C,SW2*%
X255190000Y-157540000D03*
D18*
X259000000Y-155000000D03*
D19*
X253920000Y-155000000D03*
X264080000Y-155000000D03*
D17*
X261540000Y-160080000D03*
D20*
X256460000Y-149920000D03*
X262810000Y-152460000D03*
%TD*%
D17*
%TO.C,SW20*%
X120540000Y-147080000D03*
D18*
X118000000Y-142000000D03*
D19*
X123080000Y-142000000D03*
X112920000Y-142000000D03*
D17*
X114190000Y-144540000D03*
D20*
X115460000Y-136920000D03*
X121810000Y-139460000D03*
%TD*%
D17*
%TO.C,SW18*%
X137190000Y-131540000D03*
D19*
X135920000Y-129000000D03*
D18*
X141000000Y-129000000D03*
D19*
X146080000Y-129000000D03*
D17*
X143540000Y-134080000D03*
D20*
X138460000Y-123920000D03*
X144810000Y-126460000D03*
%TD*%
D17*
%TO.C,SW10*%
X284540000Y-90080000D03*
D18*
X282000000Y-85000000D03*
D17*
X278190000Y-87540000D03*
D19*
X287080000Y-85000000D03*
X276920000Y-85000000D03*
D20*
X279460000Y-79920000D03*
X285810000Y-82460000D03*
%TD*%
D19*
%TO.C,SW3*%
X331920000Y-75000000D03*
D18*
X337000000Y-75000000D03*
D17*
X339540000Y-80080000D03*
D19*
X342080000Y-75000000D03*
D17*
X333190000Y-77540000D03*
D20*
X334460000Y-69920000D03*
X340810000Y-72460000D03*
%TD*%
D17*
%TO.C,SW15*%
X65540000Y-56080000D03*
D18*
X63000000Y-51000000D03*
D19*
X68080000Y-51000000D03*
X57920000Y-51000000D03*
D17*
X59190000Y-53540000D03*
D20*
X60460000Y-45920000D03*
X66810000Y-48460000D03*
%TD*%
D18*
%TO.C,SW4*%
X118000000Y-61000000D03*
D19*
X123080000Y-61000000D03*
X112920000Y-61000000D03*
D17*
X114190000Y-63540000D03*
X120540000Y-66080000D03*
D20*
X115460000Y-55920000D03*
X121810000Y-58460000D03*
%TD*%
D19*
%TO.C,SW19*%
X146080000Y-155000000D03*
D18*
X141000000Y-155000000D03*
D17*
X137190000Y-157540000D03*
X143540000Y-160080000D03*
D19*
X135920000Y-155000000D03*
D20*
X138460000Y-149920000D03*
X144810000Y-152460000D03*
%TD*%
D17*
%TO.C,SW5*%
X114190000Y-87540000D03*
D19*
X123080000Y-85000000D03*
D17*
X120540000Y-90080000D03*
D19*
X112920000Y-85000000D03*
D18*
X118000000Y-85000000D03*
D20*
X115460000Y-79920000D03*
X121810000Y-82460000D03*
%TD*%
D18*
%TO.C,SW11*%
X63000000Y-75000000D03*
D17*
X65540000Y-80080000D03*
D19*
X57920000Y-75000000D03*
D17*
X59190000Y-77540000D03*
D19*
X68080000Y-75000000D03*
D20*
X60460000Y-69920000D03*
X66810000Y-72460000D03*
%TD*%
D17*
%TO.C,SW1*%
X358190000Y-93540000D03*
D19*
X356920000Y-91000000D03*
X367080000Y-91000000D03*
D18*
X362000000Y-91000000D03*
D17*
X364540000Y-96080000D03*
D20*
X359460000Y-85920000D03*
X365810000Y-88460000D03*
%TD*%
D17*
%TO.C,SW13*%
X40540000Y-72080000D03*
D19*
X32920000Y-67000000D03*
X43080000Y-67000000D03*
D17*
X34190000Y-69540000D03*
D18*
X38000000Y-67000000D03*
D20*
X35460000Y-61920000D03*
X41810000Y-64460000D03*
%TD*%
D19*
%TO.C,SW12*%
X194920000Y-85000000D03*
X205080000Y-85000000D03*
D17*
X196190000Y-87540000D03*
X202540000Y-90080000D03*
D18*
X200000000Y-85000000D03*
D20*
X197460000Y-79920000D03*
X203810000Y-82460000D03*
%TD*%
D18*
%TO.C,SW9*%
X91000000Y-72000000D03*
D19*
X96080000Y-72000000D03*
D17*
X87190000Y-74540000D03*
X93540000Y-77080000D03*
D19*
X85920000Y-72000000D03*
D20*
X88460000Y-66920000D03*
X94810000Y-69460000D03*
%TD*%
D17*
%TO.C,SW6*%
X238540000Y-173080000D03*
X232190000Y-170540000D03*
D18*
X236000000Y-168000000D03*
D19*
X241080000Y-168000000D03*
X230920000Y-168000000D03*
D20*
X233460000Y-162920000D03*
X239810000Y-165460000D03*
%TD*%
D18*
%TO.C,SW17*%
X164000000Y-168000000D03*
D17*
X160190000Y-170540000D03*
X166540000Y-173080000D03*
D19*
X158920000Y-168000000D03*
X169080000Y-168000000D03*
D20*
X161460000Y-162920000D03*
X167810000Y-165460000D03*
%TD*%
D19*
%TO.C,SW8*%
X96080000Y-48000000D03*
X85920000Y-48000000D03*
D17*
X93540000Y-53080000D03*
D18*
X91000000Y-48000000D03*
D17*
X87190000Y-50540000D03*
D20*
X88460000Y-42920000D03*
X94810000Y-45460000D03*
%TD*%
D18*
%TO.C,SW16*%
X164000000Y-142000000D03*
D17*
X160190000Y-144540000D03*
X166540000Y-147080000D03*
D19*
X158920000Y-142000000D03*
X169080000Y-142000000D03*
D20*
X161460000Y-136920000D03*
X167810000Y-139460000D03*
%TD*%
D17*
%TO.C,SW7*%
X305190000Y-74540000D03*
D18*
X309000000Y-72000000D03*
D19*
X314080000Y-72000000D03*
D17*
X311540000Y-77080000D03*
D19*
X303920000Y-72000000D03*
D20*
X306460000Y-66920000D03*
X312810000Y-69460000D03*
%TD*%
D18*
%TO.C,SW14*%
X38000000Y-91000000D03*
D19*
X43080000Y-91000000D03*
X32920000Y-91000000D03*
D17*
X34190000Y-93540000D03*
X40540000Y-96080000D03*
D20*
X35460000Y-85920000D03*
X41810000Y-88460000D03*
%TD*%
M02*
